<?xml version="1.0" encoding="UTF-8"?>
<svg id="Capa_1" data-name="Capa 1" xmlns="http://www.w3.org/2000/svg" viewBox="0 0 226.21 32.45">
  <defs>
    <style>
      .cls-1 {
        fill: #7c7b7c;
      }
    </style>
  </defs>
  <g>
    <g>
      <path class="cls-1" d="m44.23,8.75v12.2c0,.25.09.45.27.6.18.15.39.23.64.23.23,0,.44-.03.63-.1v1.83c-.38.12-.78.18-1.2.18-1.64,0-2.46-.9-2.46-2.71v-12.24h2.12Z"/>
      <path class="cls-1" d="m46.85,14.92c0-.92.3-1.63.9-2.15.57-.49,1.32-.74,2.25-.74.87,0,1.59.27,2.15.82.56.55.84,1.26.84,2.13v5.86c0,.97-.27,1.74-.81,2.29-.54.55-1.3.83-2.26.83s-1.69-.29-2.24-.88c-.54-.57-.81-1.33-.81-2.28v-5.89Zm2.18,6.1c0,.65.29.98.86.98.62,0,.93-.33.93-.98v-6.18c0-.55-.31-.83-.93-.83-.58,0-.86.28-.86.83v6.18Z"/>
      <path class="cls-1" d="m54.1,20.61l2.05-.46c.17,1.24.64,1.86,1.4,1.86.66,0,.98-.33.98-1,0-.6-.74-1.46-2.21-2.56-1.32-.99-1.98-2.09-1.98-3.32,0-.93.29-1.68.86-2.25.57-.57,1.33-.85,2.26-.85s1.61.27,2.15.81c.52.53.81,1.24.87,2.14l-2,.48c-.16-.96-.53-1.45-1.13-1.45s-.92.33-.92,1c0,.49.5,1.13,1.5,1.93.21.16.42.33.63.51.67.56,1.16,1.06,1.45,1.48.41.59.61,1.24.61,1.95,0,.94-.29,1.7-.87,2.26-.58.56-1.34.84-2.3.84s-1.75-.33-2.35-.99c-.54-.6-.87-1.39-1-2.4Z"/>
      <path class="cls-1" d="m61.56,20.47v-5.1c0-.97.29-1.77.88-2.4.59-.63,1.36-.94,2.33-.94s1.71.29,2.23.87c.52.58.78,1.55.78,2.91,0,2.41-1.34,3.57-4.02,3.46v1.14c0,1.06.29,1.59.91,1.59.35,0,.71-.07,1.09-.21l.85,1.66-1.7.51c-2.23.04-3.35-1.12-3.35-3.48Zm2.2-3.12h1.86l-.03-2c-.01-.89-.31-1.33-.9-1.33-.63,0-.93.44-.93,1.33v2Z"/>
      <path class="cls-1" d="m69.17,20.61l2.05-.46c.17,1.24.64,1.86,1.4,1.86.65,0,.98-.33.98-1,0-.6-.74-1.46-2.21-2.56-1.32-.99-1.99-2.09-1.99-3.32,0-.93.29-1.68.86-2.25.57-.57,1.33-.85,2.26-.85s1.61.27,2.15.81c.52.53.81,1.24.87,2.14l-2,.48c-.16-.96-.53-1.45-1.13-1.45s-.92.33-.92,1c0,.49.5,1.13,1.5,1.93.21.16.42.33.63.51.68.56,1.16,1.06,1.45,1.48.41.59.61,1.24.61,1.95,0,.94-.29,1.7-.87,2.26-.58.56-1.34.84-2.3.84s-1.75-.33-2.35-.99c-.54-.6-.87-1.39-1-2.4Z"/>
      <path class="cls-1" d="m77.76,21.3v-7.2h-1.31l.31-1.81,1,.05v-3.27h2.11v3.27h1.57v1.76h-1.57v7c0,.65.31.98.94.98.13,0,.34-.03.63-.11v1.85c-.36.12-.77.18-1.21.18-1.64,0-2.46-.9-2.46-2.71Z"/>
      <path class="cls-1" d="m82.98,23.7v-11.36h2.15v1.54c.54-1.12,1.28-1.68,2.24-1.68h.21v2.38c-.2-.1-.43-.15-.69-.15-1.17,0-1.76.61-1.76,1.83v7.43h-2.15Z"/>
      <path class="cls-1" d="m94.7,15.55v5.1c0,.97-.29,1.77-.86,2.39-.6.64-1.38.96-2.34.96s-1.71-.29-2.23-.87c-.52-.58-.78-1.55-.78-2.91,0-2.41,1.35-3.56,4.03-3.46v-1.14c0-1.06-.3-1.59-.91-1.59-.35,0-.71.07-1.1.21l-.85-1.66,1.7-.51c2.23-.04,3.34,1.12,3.34,3.48Zm-2.18,3.12h-1.88l.03,2c.01.89.32,1.33.91,1.33.63,0,.94-.44.93-1.33v-2Z"/>
      <path class="cls-1" d="m97.07,21.3v-7.2h-1.31l.31-1.81,1,.05v-3.27h2.11v3.27h1.57v1.76h-1.57v7c0,.65.31.98.94.98.14,0,.34-.03.63-.11v1.85c-.37.12-.77.18-1.21.18-1.64,0-2.46-.9-2.46-2.71Z"/>
      <path class="cls-1" d="m101.74,20.47v-5.1c0-.97.29-1.77.88-2.4.58-.63,1.36-.94,2.32-.94s1.71.29,2.23.87c.52.58.78,1.55.78,2.91,0,2.41-1.34,3.57-4.02,3.46v1.14c0,1.06.29,1.59.91,1.59.35,0,.71-.07,1.09-.21l.85,1.66-1.7.51c-2.23.04-3.35-1.12-3.35-3.48Zm2.2-3.12h1.86l-.03-2c-.01-.89-.31-1.33-.9-1.33-.63,0-.93.44-.93,1.33v2Z"/>
      <path class="cls-1" d="m111.06,20.36c-.92-.58-1.38-1.47-1.38-2.69v-2.27c0-1.01.23-1.81.68-2.39.5-.65,1.24-.97,2.22-.97s1.76.42,2.45,1.27c.26.47.39.8.39.98v3.41c0,2.05-.91,3.07-2.72,3.06-.05,0-.22-.01-.51-.04-.02,0-.04,0-.05-.01-.33.25-.5.49-.5.73,0,.33.41.52,1.25.57.52.03.92.06,1.19.1,1.79.26,2.69,1.12,2.69,2.55,0,1.79-1.37,2.68-4.1,2.68-2.37,0-3.56-.6-3.56-1.81,0-.37.16-.72.48-1.04.27-.27.74-.54,1.42-.81-.87-.22-1.31-.66-1.31-1.31s.46-1.33,1.38-2Zm1.17,3.61c-.54.25-.81.55-.81.9,0,.3.19.53.58.7.3.13.62.19.96.19.42,0,.8-.05,1.14-.17.49-.17.74-.42.74-.76,0-.56-.87-.85-2.6-.86Zm1.25-6.16v-2.64c0-.77-.31-1.15-.94-1.15s-.91.38-.91,1.15v2.64c0,.77.3,1.16.91,1.16s.94-.39.94-1.16Z"/>
      <path class="cls-1" d="m123.56,15.55v5.1c0,.97-.29,1.77-.86,2.39-.6.64-1.38.96-2.34.96s-1.71-.29-2.23-.87c-.52-.58-.78-1.55-.78-2.91,0-2.41,1.34-3.56,4.03-3.46v-1.14c0-1.06-.3-1.59-.91-1.59-.35,0-.71.07-1.1.21l-.85-1.66,1.7-.51c2.23-.04,3.34,1.12,3.34,3.48Zm-2.18,3.12h-1.88l.03,2c.01.89.32,1.33.91,1.33.63,0,.94-.44.93-1.33v-2Z"/>
      <path class="cls-1" d="m124.64,20.61l2.05-.46c.17,1.24.64,1.86,1.4,1.86.65,0,.98-.33.98-1,0-.6-.74-1.46-2.21-2.56-1.32-.99-1.98-2.09-1.98-3.32,0-.93.29-1.68.86-2.25.57-.57,1.32-.85,2.26-.85s1.61.27,2.15.81c.52.53.81,1.24.87,2.14l-2,.48c-.16-.96-.53-1.45-1.13-1.45s-.92.33-.92,1c0,.49.5,1.13,1.5,1.93.21.16.42.33.63.51.67.56,1.16,1.06,1.45,1.48.41.59.61,1.24.61,1.95,0,.94-.29,1.7-.87,2.26-.58.56-1.34.84-2.29.84s-1.75-.33-2.35-.99c-.54-.6-.88-1.39-1-2.4Z"/>
    </g>
    <path class="cls-1" d="m20.89,10.55l-1.1,2.51c.32.39.59.83.79,1.33.99,2.52-.24,5.36-2.75,6.36-1.03.41-2.12.44-3.12.16l3.97-8.82s0,0,0,0l1.04-2.36c-1.89-1.08-4.25-1.33-6.44-.46-3.83,1.51-5.7,5.84-4.19,9.67,1.51,3.82,5.84,5.7,9.67,4.19,3.83-1.51,5.7-5.84,4.19-9.67-.46-1.16-1.18-2.14-2.06-2.9Zm-9.42,7.44c-.99-2.52.24-5.36,2.75-6.35.74-.29,1.5-.39,2.24-.32l-3.79,8.43c-.51-.48-.93-1.07-1.2-1.76Z"/>
    <g>
      <path class="cls-1" d="m24.53,10.04l-1.84-8.13c-.08-.36-.28-.6-.54-.71h0c-.26-.12-.58-.09-.89.12l-7.06,4.44-.18.15c-.11.25.02.54.27.65l.12.02c1.71-.22,3.5-.02,5.21.69h0c1.71.72,3.13,1.84,4.18,3.21l.1.08c.25.1.54-.01.64-.27l-.02-.24Z"/>
      <path class="cls-1" d="m22.16,24.64l8.12-1.89c.36-.08.6-.28.71-.54h0c.11-.26.07-.58-.12-.89l-4.49-7.02-.15-.18c-.26-.1-.54.02-.64.27l-.02.13c.24,1.71.04,3.5-.66,5.21h0c-.7,1.71-1.81,3.14-3.18,4.2l-.07.11c-.1.25.02.54.27.64l.24-.02Z"/>
      <path class="cls-1" d="m7.51,22.06l1.84,8.13c.08.36.28.61.54.72h0c.26.11.58.08.89-.12l7.05-4.44.18-.15c.11-.25-.01-.54-.27-.65l-.13-.02c-1.71.23-3.5.01-5.21-.69h0c-1.71-.71-3.12-1.84-4.18-3.21l-.11-.07c-.25-.11-.54.01-.64.27l.02.24Z"/>
      <path class="cls-1" d="m9.97,7.6l-8.12,1.9c-.36.08-.6.29-.71.54h0c-.11.26-.08.58.13.89l4.49,7.02.15.18c.25.1.54-.02.64-.27l.02-.13c-.24-1.71-.04-3.5.65-5.21h0c.7-1.72,1.81-3.14,3.17-4.2l.07-.1c.1-.25-.02-.54-.27-.64l-.24.03Z"/>
    </g>
    <g>
      <path class="cls-1" d="m7.34,25.01l-6.56-1.44c-.36-.08-.61-.28-.72-.54h0c-.11-.26-.08-.58.12-.89l3.44-5.54s.19-.18.24.09v.12c0,3.18,1.36,6.05,3.52,8.06,0,0,.08.12-.05.15Z"/>
      <path class="cls-1" d="m28.87,15.7l3.51-5.73c.19-.31.22-.64.11-.9h0c-.11-.25-.36-.45-.72-.52l-6.38-1.36s-.27.02-.11.24c.03.03.06.06.09.08,2.3,2.2,3.42,5.17,3.37,8.12,0,0,.03.14.14.07Z"/>
      <path class="cls-1" d="m25.06,25.11l-1.44,6.56c-.08.36-.28.62-.54.72h0c-.26.1-.57.07-.89-.12l-5.54-3.44s-.18-.19.09-.25c.04,0,.08,0,.12,0,3.18,0,6.05-1.36,8.06-3.52,0,0,.12-.08.15.05Z"/>
      <path class="cls-1" d="m15.47,3.48L9.64.16c-.32-.18-.64-.2-.9-.08h0c-.25.13-.44.38-.51.74l-1.16,6.42s.02.27.24.1c.03-.03.05-.06.08-.09,2.14-2.36,5.06-3.58,8.01-3.62,0,0,.14-.04.06-.14Z"/>
    </g>
    <g>
      <path class="cls-1" d="m148.56,23.9v-11.17h1.75v11.17h-1.75Z"/>
      <path class="cls-1" d="m152.04,23.9v-11.17h2.45c1.86,0,2.79,1.02,2.79,3.07v4.99c0,1.02-.19,1.78-.58,2.28-.43.56-1.15.83-2.13.83h-2.53Zm1.71-1.64h.87c.6,0,.9-.39.9-1.17v-5.38c0-.88-.46-1.33-1.38-1.33h-.39v7.88Z"/>
      <path class="cls-1" d="m158.85,23.9v-11.17h4.49v1.62h-2.77v2.93h1.99v1.61h-1.99v3.34h2.77v1.68h-4.49Z"/>
      <path class="cls-1" d="m163.88,23.9l1.84-11.17h2.25l1.83,11.17h-1.78l-.34-2.42h-1.74l-.37,2.42h-1.69Zm2.28-4h1.31l-.59-4.67h-.11l-.62,4.67Z"/>
      <path class="cls-1" d="m170.26,21.07l1.65-.25c.06,1.11.44,1.66,1.14,1.66.32,0,.58-.1.77-.3.2-.2.29-.46.29-.78,0-.58-.46-1.33-1.39-2.25l-.16-.16c-.71-.71-1.19-1.25-1.45-1.63-.45-.66-.68-1.33-.68-2.02,0-.77.25-1.43.76-1.98.51-.55,1.14-.82,1.91-.82s1.39.27,1.85.82c.42.5.66,1.15.73,1.95l-1.68.24c-.06-.93-.37-1.4-.95-1.4-.61,0-.92.35-.92,1.04,0,.65.54,1.5,1.62,2.54.03.03.06.06.1.1.66.64,1.12,1.16,1.37,1.57.38.59.56,1.25.56,1.97,0,.8-.25,1.46-.74,1.99-.49.53-1.14.8-1.93.8-.9,0-1.6-.3-2.1-.89-.46-.55-.71-1.28-.75-2.2Z"/>
      <g>
        <path class="cls-1" d="m180.36,12.72h1.69l1.03,6.63c.13.8.19,1.57.19,2.33v.2c.03-1.05.09-1.9.19-2.54l1-6.63h1.7l-1.98,11.2h-1.8l-2.01-11.2Z"/>
        <path class="cls-1" d="m186.39,23.92l1.84-11.2h2.25l1.84,11.2h-1.78l-.34-2.43h-1.74l-.37,2.43h-1.7Zm2.28-4.01h1.32l-.59-4.68h-.11l-.62,4.68Z"/>
        <path class="cls-1" d="m195.58,23.98c-.67.02-1.17-.22-1.52-.73-.33-.49-.49-1.23-.49-2.24v-8.23h1.73v8.57c0,.62.3.94.9.94.06,0,.14,0,.22-.02.09-.01.55-.02,1.4-.02l-.12,1.67-2.12.06Z"/>
        <path class="cls-1" d="m198.68,23.92v-11.2h1.76v11.2h-1.76Z"/>
        <path class="cls-1" d="m201.96,15.31c0-.87.23-1.56.7-2.05.48-.52,1.15-.78,2.01-.78s1.49.28,1.95.82c.43.52.65,1.2.65,2.05v5.74c0,.93-.21,1.66-.63,2.19-.46.58-1.14.88-2.04.88-1.77,0-2.65-1.04-2.65-3.11v-5.74Zm3.54,6.14v-6.25c0-.77-.3-1.16-.89-1.16s-.89.39-.89,1.16v6.25c0,.78.3,1.17.89,1.17s.89-.39.89-1.17Z"/>
        <path class="cls-1" d="m208.32,21.08l1.65-.25c.06,1.11.44,1.66,1.15,1.66.32,0,.58-.1.77-.3.19-.2.29-.46.29-.78,0-.58-.47-1.34-1.4-2.26l-.16-.16c-.71-.71-1.2-1.26-1.45-1.63-.45-.66-.68-1.34-.68-2.02,0-.78.25-1.44.76-1.98.51-.55,1.15-.82,1.92-.82s1.39.27,1.86.82c.42.5.67,1.15.73,1.95l-1.69.24c-.06-.93-.37-1.4-.95-1.4-.61,0-.92.34-.92,1.04,0,.65.54,1.5,1.63,2.55.03.03.06.06.1.1.67.64,1.12,1.17,1.37,1.57.38.6.57,1.26.57,1.98,0,.8-.24,1.47-.74,2-.5.53-1.14.8-1.94.8-.9,0-1.6-.3-2.11-.89-.46-.55-.71-1.28-.75-2.21Z"/>
        <path class="cls-1" d="m214.27,23.92l1.84-11.2h2.25l1.84,11.2h-1.78l-.34-2.43h-1.75l-.37,2.43h-1.7Zm2.29-4.01h1.32l-.59-4.68h-.11l-.62,4.68Z"/>
        <path class="cls-1" d="m220.67,21.08l1.65-.25c.06,1.11.44,1.66,1.15,1.66.32,0,.58-.1.77-.3.19-.2.29-.46.29-.78,0-.58-.46-1.34-1.4-2.26l-.16-.16c-.71-.71-1.19-1.26-1.45-1.63-.45-.66-.68-1.34-.68-2.02,0-.78.25-1.44.76-1.98.51-.55,1.15-.82,1.92-.82s1.4.27,1.86.82c.42.5.66,1.15.73,1.95l-1.69.24c-.06-.93-.37-1.4-.94-1.4-.61,0-.92.34-.92,1.04,0,.65.54,1.5,1.63,2.55.03.03.06.06.1.1.67.64,1.12,1.17,1.37,1.57.38.6.57,1.26.57,1.98,0,.8-.25,1.47-.74,2-.5.53-1.14.8-1.94.8-.9,0-1.6-.3-2.11-.89-.46-.55-.71-1.28-.75-2.21Z"/>
      </g>
    </g>
    <rect class="cls-1" x="138.92" y="1.13" width="1.5" height="29.85"/>
  </g>
  <g>
    <g>
      <path class="cls-1" d="m134.37,9.34h-.35l-.23-.64c-.04-.11-.11-.21-.2-.28-.09-.07-.2-.11-.33-.11h-.59v1.03h-.32v-2.41h1.07c.19,0,.34.02.46.05.12.04.22.11.29.23.07.12.11.25.11.39,0,.17-.05.31-.15.42-.1.11-.23.18-.4.22h0c.17.06.3.21.38.44l.24.66Zm-1.69-1.32h.71c.2,0,.34-.03.43-.09.09-.06.13-.17.13-.32,0-.27-.17-.41-.52-.41h-.76v.83Z"/>
      <path class="cls-1" d="m134.44,9.39h-.45l-.24-.68c-.04-.1-.1-.19-.19-.26-.09-.07-.18-.1-.29-.1h-.54v1.03h-.42v-2.51h1.12c.19,0,.35.02.47.06.13.04.24.12.32.25.08.12.12.27.12.42,0,.18-.05.33-.16.45-.08.09-.18.16-.3.2.12.08.22.22.29.41l.27.73Zm-.38-.1h.24l-.22-.59c-.08-.22-.2-.36-.35-.41h-.04v-.09h.04c.16-.05.28-.11.37-.22.09-.1.13-.23.13-.39,0-.14-.03-.26-.1-.37-.07-.11-.16-.18-.26-.21-.11-.03-.26-.05-.44-.05h-1.02v2.31h.22v-1.03h.64c.13,0,.25.04.36.12.1.08.18.18.22.3l.22.61Zm-.67-1.22h-.76v-.93h.81c.47,0,.57.25.57.46,0,.17-.05.29-.16.37-.1.07-.25.1-.46.1Zm-.66-.1h.66c.19,0,.32-.03.4-.08.07-.05.11-.15.11-.28,0-.15-.05-.36-.47-.36h-.71v.73Z"/>
    </g>
    <path class="cls-1" d="m133.36,10.76c-1.45,0-2.62-1.18-2.62-2.62s1.18-2.62,2.62-2.62,2.62,1.18,2.62,2.62-1.18,2.62-2.62,2.62Zm0-4.84c-1.22,0-2.22.99-2.22,2.22s.99,2.22,2.22,2.22,2.22-.99,2.22-2.22-1-2.22-2.22-2.22Z"/>
  </g>
</svg>