<?xml version="1.0" encoding="UTF-8"?>
<svg id="Capa_1" data-name="Capa 1" xmlns="http://www.w3.org/2000/svg" viewBox="0 0 1057.65 211.53">
  <defs>
    <style>
      .cls-1 {
        fill: #fff;
        stroke-width: 0px;
      }
    </style>
  </defs>
  <path class="cls-1" d="M148.8,69.16h-23.44v43.88h23.44c17.65,0,26.89-7.96,26.89-21.94s-9.24-21.94-26.89-21.94Z"/>
  <path class="cls-1" d="M287.66,91.1c0-13.97-9.24-21.94-26.89-21.94h-23.44v44.02h23.44c17.65,0,26.89-8.1,26.89-22.08Z"/>
  <polygon class="cls-1" points="889.14 119.19 930.78 119.19 909.96 71.26 889.14 119.19"/>
  <path class="cls-1" d="M1026.12,0H31.53C14.12,0,0,14.12,0,31.53v148.46c0,17.42,14.12,31.53,31.53,31.53h994.59c17.42,0,31.53-14.12,31.53-31.53V31.53c0-17.42-14.12-31.53-31.53-31.53ZM149.22,125.2h-23.86v29.63h-13.79V57h37.65c25.1,0,40.27,12.86,40.27,34.1s-15.17,34.11-40.27,34.11ZM288.08,154.83l-20.83-30.05c-1.93.14-4,.28-6.07.28h-23.86v29.77h-13.79V57h37.65c25.1,0,40.27,12.86,40.27,34.1,0,15.1-7.72,26-21.24,30.89l22.89,32.85h-15.03ZM407.63,154.83h-70.05V57h68.12v12.16h-54.33v30.05h48.41v11.88h-48.41v31.59h56.27v12.16ZM483.88,154.83h-13.65l-42.47-97.83h14.89l34.75,80.36,35.03-80.36h13.79l-42.34,97.83ZM622.32,154.83h-70.05V57h68.12v12.16h-54.33v30.05h48.41v11.88h-48.41v31.59h56.27v12.16ZM741.46,154.83h-11.31l-57.92-72.96v72.96h-13.79V57h11.31l57.92,72.96V57h13.79v97.83ZM850.12,69.16h-33.1v85.67h-13.65v-85.67h-33.1v-12.16h79.85v12.16ZM946.23,154.83l-10.62-24.46h-51.3l-10.62,24.46h-14.2l43.71-97.83h13.65l43.85,97.83h-14.48Z"/>
</svg>