<?xml version="1.0" encoding="UTF-8"?>
<svg id="Capa_1" data-name="Capa 1" xmlns="http://www.w3.org/2000/svg" xmlns:xlink="http://www.w3.org/1999/xlink" viewBox="0 0 200 200">
  <defs>
    <style>
      .cls-1 {
        fill: url(#Degradado_sin_nombre_7);
      }

      .cls-1, .cls-2, .cls-3 {
        stroke-width: 0px;
      }

      .cls-2 {
        fill-rule: evenodd;
      }

      .cls-2, .cls-3 {
        fill: #eee7d3;
      }
    </style>
    <linearGradient id="Degradado_sin_nombre_7" data-name="Degradado sin nombre 7" x1="0" y1="100" x2="200" y2="100" gradientUnits="userSpaceOnUse">
      <stop offset="0" stop-color="#1e1a4c"/>
      <stop offset="1" stop-color="#003a6d"/>
    </linearGradient>
  </defs>
  <circle class="cls-1" cx="100" cy="100" r="100"/>
  <g>
    <path class="cls-3" d="M75.52,137.04l1.92,1.14c7.03,4.18,15.01,6.4,23.11,6.4,24.96,0,45.27-20.31,45.27-45.28s-20.31-45.27-45.27-45.27-45.28,20.31-45.28,45.27c0,8.25,2.29,16.37,6.62,23.48l1.18,1.92-4.52,16.88,16.98-4.55h0ZM43.62,156.52l8.11-30.24c-4.59-8.28-7.01-17.56-7.01-26.98,0-30.78,25.05-55.82,55.84-55.82s55.82,25.05,55.82,55.82-25.05,55.84-55.82,55.84c-9.25,0-18.37-2.33-26.54-6.77l-30.39,8.15h0Z"/>
    <path class="cls-2" d="M121.32,107.07c-2.3-1.37-5.29-2.91-7.99-1.8-2.08.85-3.4,4.1-4.75,5.76-.69.85-1.52.98-2.58.56-7.8-3.11-13.77-8.31-18.07-15.49-.73-1.11-.6-1.99.27-3.02,1.31-1.53,2.94-3.27,3.29-5.33.36-2.06-.62-4.48-1.46-6.31-1.09-2.34-2.31-5.69-4.66-7.02-2.16-1.22-5.01-.54-6.93,1.03-3.32,2.7-4.92,6.94-4.88,11.14.01,1.2.16,2.38.45,3.53.67,2.77,1.94,5.36,3.39,7.82,1.09,1.86,2.27,3.65,3.54,5.39,4.17,5.66,9.36,10.59,15.37,14.26,3,1.84,6.24,3.45,9.58,4.56,3.75,1.24,7.1,2.53,11.15,1.76,4.25-.81,8.43-3.43,10.11-7.53.5-1.21.75-2.56.47-3.84-.58-2.64-4.15-4.21-6.3-5.49h0Z"/>
  </g>
</svg>