<?xml version="1.0" encoding="UTF-8"?>
<svg id="Capa_1" data-name="Capa 1" xmlns="http://www.w3.org/2000/svg" viewBox="0 0 1501.46 268.84">
  <defs>
    <style>
      .cls-1 {
        stroke: #cebd82;
        stroke-miterlimit: 10;
        stroke-width: 2.93px;
      }

      .cls-1, .cls-2 {
        fill: #cebd82;
      }

      .cls-3 {
        fill: #241f49;
      }

      .cls-3, .cls-4, .cls-2 {
        stroke-width: 0px;
      }

      .cls-4 {
        fill: #dbc991;
      }
    </style>
  </defs>
  <g>
    <path class="cls-3" d="M314.44,268.36l-11.49-19.66h-8.57v19.66h-4.65v-47.07h13.96c5.18,0,9.11,1.26,11.8,3.77,2.68,2.51,4.02,5.81,4.02,9.9,0,3.41-.96,6.32-2.89,8.72-1.93,2.4-4.78,3.96-8.54,4.68l11.96,20h-5.58ZM294.37,244.86h9.37c3.63,0,6.37-.9,8.21-2.7,1.84-1.79,2.76-4.2,2.76-7.21s-.89-5.49-2.66-7.17-4.56-2.53-8.37-2.53h-9.3v19.6Z"/>
    <path class="cls-3" d="M340.02,225.13v17.58h17.61v3.91h-17.61v17.85h19.6v3.91h-24.26v-47.14h24.26v3.91h-19.6Z"/>
    <path class="cls-3" d="M381.45,267.22c-2.32-1.08-4.15-2.58-5.48-4.51s-2.04-4.09-2.13-6.47h4.92c.22,2.29,1.22,4.3,2.99,6.03s4.36,2.59,7.78,2.59c3.14,0,5.64-.82,7.47-2.46,1.84-1.64,2.76-3.71,2.76-6.23,0-2.02-.51-3.65-1.53-4.88-1.02-1.23-2.28-2.16-3.79-2.76s-3.59-1.27-6.24-1.99c-3.1-.85-5.56-1.68-7.38-2.49-1.82-.81-3.37-2.07-4.65-3.77-1.29-1.71-1.93-4.02-1.93-6.94,0-2.42.62-4.59,1.86-6.5,1.24-1.91,2.99-3.4,5.25-4.48,2.26-1.08,4.85-1.62,7.78-1.62,4.3,0,7.76,1.07,10.4,3.2,2.64,2.13,4.15,4.88,4.55,8.25h-5.05c-.31-1.93-1.35-3.65-3.12-5.15-1.77-1.5-4.16-2.26-7.18-2.26-2.79,0-5.12.75-6.98,2.26-1.86,1.51-2.79,3.56-2.79,6.16,0,1.97.51,3.57,1.53,4.78,1.02,1.21,2.29,2.13,3.82,2.76,1.53.63,3.6,1.3,6.21,2.02,3.01.85,5.45,1.7,7.31,2.53,1.86.83,3.43,2.1,4.72,3.81s1.93,4,1.93,6.87c0,2.2-.58,4.29-1.73,6.26-1.15,1.98-2.86,3.57-5.12,4.78-2.26,1.21-4.96,1.82-8.11,1.82s-5.75-.54-8.08-1.62Z"/>
    <path class="cls-3" d="M424.75,221.29v47.07h-4.65v-47.07h4.65Z"/>
    <path class="cls-3" d="M468.94,224.12c3.67,1.89,6.49,4.6,8.44,8.15s2.93,7.77,2.93,12.66-.98,9.04-2.93,12.56c-1.95,3.52-4.76,6.22-8.44,8.08-3.68,1.86-8.09,2.79-13.23,2.79h-13.76v-47.07h13.76c5.14,0,9.55.94,13.23,2.83ZM470.5,259.31c3.39-3.43,5.08-8.23,5.08-14.38s-1.69-11.03-5.08-14.51c-3.39-3.48-8.32-5.22-14.79-5.22h-9.1v39.26h9.1c6.47,0,11.4-1.72,14.79-5.15Z"/>
    <path class="cls-3" d="M500.18,225.13v17.58h17.61v3.91h-17.61v17.85h19.6v3.91h-24.26v-47.14h24.26v3.91h-19.6Z"/>
    <path class="cls-3" d="M570.61,268.36h-4.65l-25.72-39.6v39.6h-4.65v-47.07h4.65l25.72,39.53v-39.53h4.65v47.07Z"/>
    <path class="cls-3" d="M588.69,232.37c1.99-3.66,4.72-6.51,8.18-8.55,3.45-2.04,7.31-3.06,11.56-3.06,5.18,0,9.63,1.24,13.33,3.74s6.39,6,8.07,10.54h-5.45c-1.33-3.19-3.35-5.68-6.08-7.48-2.72-1.79-6.01-2.69-9.87-2.69-3.41,0-6.48.81-9.2,2.42-2.73,1.62-4.86,3.94-6.41,6.97-1.55,3.03-2.33,6.54-2.33,10.54s.78,7.5,2.33,10.51,3.69,5.32,6.41,6.93c2.72,1.62,5.79,2.43,9.2,2.43,3.86,0,7.15-.89,9.87-2.66,2.73-1.77,4.75-4.23,6.08-7.37h5.45c-1.68,4.49-4.39,7.97-8.11,10.44-3.72,2.47-8.15,3.71-13.29,3.71-4.25,0-8.11-1.02-11.56-3.07-3.46-2.04-6.18-4.88-8.18-8.52-1.99-3.63-2.99-7.76-2.99-12.39s1-8.77,2.99-12.42Z"/>
    <path class="cls-3" d="M650.36,221.29v47.07h-4.65v-47.07h4.65Z"/>
    <path class="cls-3" d="M694.48,257.18h-21.13l-4.06,11.18h-4.92l16.94-46.47h5.25l16.88,46.47h-4.92l-4.06-11.18ZM693.09,253.28l-9.17-25.45-9.17,25.45h18.34Z"/>
    <path class="cls-3" d="M723.56,267.22c-2.32-1.08-4.15-2.58-5.48-4.51s-2.04-4.09-2.13-6.47h4.92c.22,2.29,1.22,4.3,2.99,6.03s4.36,2.59,7.78,2.59c3.14,0,5.64-.82,7.47-2.46,1.84-1.64,2.76-3.71,2.76-6.23,0-2.02-.51-3.65-1.53-4.88-1.02-1.23-2.28-2.16-3.79-2.76s-3.59-1.27-6.24-1.99c-3.1-.85-5.56-1.68-7.38-2.49-1.82-.81-3.37-2.07-4.65-3.77-1.29-1.71-1.93-4.02-1.93-6.94,0-2.42.62-4.59,1.86-6.5,1.24-1.91,2.99-3.4,5.25-4.48,2.26-1.08,4.85-1.62,7.78-1.62,4.3,0,7.76,1.07,10.4,3.2,2.64,2.13,4.15,4.88,4.55,8.25h-5.05c-.31-1.93-1.35-3.65-3.12-5.15-1.77-1.5-4.16-2.26-7.18-2.26-2.79,0-5.12.75-6.98,2.26-1.86,1.51-2.79,3.56-2.79,6.16,0,1.97.51,3.57,1.53,4.78,1.02,1.21,2.29,2.13,3.82,2.76,1.53.63,3.6,1.3,6.21,2.02,3.01.85,5.45,1.7,7.31,2.53,1.86.83,3.43,2.1,4.72,3.81s1.93,4,1.93,6.87c0,2.2-.58,4.29-1.73,6.26-1.15,1.98-2.86,3.57-5.12,4.78-2.26,1.21-4.96,1.82-8.11,1.82s-5.75-.54-8.08-1.62Z"/>
    <path class="cls-3" d="M817.76,221.29l-14.89,28.75v18.32h-4.65v-18.32l-15.02-28.75h5.25l12.09,24.44,12.03-24.44h5.18Z"/>
    <path class="cls-3" d="M891.05,268.36h-4.65l-25.72-39.6v39.6h-4.65v-47.07h4.65l25.72,39.53v-39.53h4.65v47.07Z"/>
    <path class="cls-3" d="M912.92,225.13v17.58h17.61v3.91h-17.61v17.85h19.6v3.91h-24.26v-47.14h24.26v3.91h-19.6Z"/>
    <path class="cls-3" d="M984.88,235.03c-1.33-3.1-3.35-5.53-6.08-7.31-2.72-1.77-5.93-2.66-9.6-2.66-3.46,0-6.56.81-9.31,2.42s-4.92,3.92-6.51,6.9c-1.59,2.99-2.39,6.45-2.39,10.4s.8,7.43,2.39,10.44c1.6,3.01,3.77,5.32,6.51,6.94s5.85,2.42,9.31,2.42c3.23,0,6.15-.71,8.74-2.12s4.67-3.43,6.25-6.06c1.57-2.63,2.47-5.69,2.69-9.19h-19.54v-3.84h24.46v3.43c-.22,4.13-1.33,7.87-3.32,11.21-1.99,3.35-4.66,5.98-8.01,7.91-3.35,1.93-7.1,2.89-11.26,2.89s-8.2-1.02-11.7-3.06-6.26-4.89-8.27-8.55c-2.02-3.66-3.02-7.8-3.02-12.42s1-8.77,3.02-12.42c2.02-3.66,4.77-6.51,8.27-8.55s7.4-3.06,11.7-3.06c4.96,0,9.3,1.26,13.02,3.77s6.42,6.02,8.11,10.51h-5.45Z"/>
    <path class="cls-3" d="M1016.12,265.77c-3.5-2.04-6.26-4.89-8.27-8.55-2.02-3.66-3.02-7.8-3.02-12.42s1-8.77,3.02-12.42c2.02-3.66,4.77-6.51,8.27-8.55s7.4-3.06,11.7-3.06,8.26,1.02,11.76,3.06,6.25,4.89,8.24,8.55,2.99,7.8,2.99,12.42-1,8.77-2.99,12.42-4.74,6.51-8.24,8.55-7.42,3.06-11.76,3.06-8.2-1.02-11.7-3.06ZM1037.12,262.3c2.75-1.62,4.92-3.94,6.51-6.97,1.59-3.03,2.39-6.54,2.39-10.54s-.8-7.5-2.39-10.51c-1.59-3.01-3.77-5.32-6.51-6.93-2.75-1.62-5.85-2.43-9.3-2.43s-6.56.81-9.31,2.43c-2.75,1.62-4.92,3.93-6.51,6.93-1.59,3.01-2.39,6.51-2.39,10.51s.8,7.51,2.39,10.54c1.6,3.03,3.77,5.35,6.51,6.97s5.85,2.42,9.31,2.42,6.55-.81,9.3-2.42Z"/>
    <path class="cls-3" d="M1066.82,232.37c1.99-3.66,4.72-6.51,8.18-8.55,3.45-2.04,7.31-3.06,11.56-3.06,5.18,0,9.63,1.24,13.33,3.74s6.39,6,8.07,10.54h-5.45c-1.33-3.19-3.35-5.68-6.08-7.48-2.72-1.79-6.01-2.69-9.87-2.69-3.41,0-6.48.81-9.2,2.42-2.73,1.62-4.86,3.94-6.41,6.97-1.55,3.03-2.33,6.54-2.33,10.54s.78,7.5,2.33,10.51,3.69,5.32,6.41,6.93c2.72,1.62,5.79,2.43,9.2,2.43,3.86,0,7.15-.89,9.87-2.66,2.73-1.77,4.75-4.23,6.08-7.37h5.45c-1.68,4.49-4.39,7.97-8.11,10.44-3.72,2.47-8.15,3.71-13.29,3.71-4.25,0-8.11-1.02-11.56-3.07-3.46-2.04-6.18-4.88-8.18-8.52-1.99-3.63-2.99-7.76-2.99-12.39s1-8.77,2.99-12.42Z"/>
    <path class="cls-3" d="M1128.49,221.29v47.07h-4.65v-47.07h4.65Z"/>
    <path class="cls-3" d="M1154.87,265.77c-3.5-2.04-6.26-4.89-8.27-8.55-2.02-3.66-3.02-7.8-3.02-12.42s1-8.77,3.02-12.42c2.02-3.66,4.77-6.51,8.27-8.55s7.4-3.06,11.7-3.06,8.26,1.02,11.76,3.06,6.25,4.89,8.24,8.55,2.99,7.8,2.99,12.42-1,8.77-2.99,12.42-4.74,6.51-8.24,8.55-7.42,3.06-11.76,3.06-8.2-1.02-11.7-3.06ZM1175.87,262.3c2.75-1.62,4.92-3.94,6.51-6.97,1.59-3.03,2.39-6.54,2.39-10.54s-.8-7.5-2.39-10.51c-1.59-3.01-3.77-5.32-6.51-6.93-2.75-1.62-5.85-2.43-9.3-2.43s-6.56.81-9.31,2.43c-2.75,1.62-4.92,3.93-6.51,6.93-1.59,3.01-2.39,6.51-2.39,10.51s.8,7.51,2.39,10.54c1.6,3.03,3.77,5.35,6.51,6.97s5.85,2.42,9.31,2.42,6.55-.81,9.3-2.42Z"/>
    <path class="cls-3" d="M1210.73,267.22c-2.32-1.08-4.15-2.58-5.48-4.51s-2.04-4.09-2.13-6.47h4.92c.22,2.29,1.22,4.3,2.99,6.03s4.36,2.59,7.78,2.59c3.14,0,5.64-.82,7.47-2.46,1.84-1.64,2.76-3.71,2.76-6.23,0-2.02-.51-3.65-1.53-4.88-1.02-1.23-2.28-2.16-3.79-2.76s-3.59-1.27-6.24-1.99c-3.1-.85-5.56-1.68-7.38-2.49-1.82-.81-3.37-2.07-4.65-3.77-1.29-1.71-1.93-4.02-1.93-6.94,0-2.42.62-4.59,1.86-6.5,1.24-1.91,2.99-3.4,5.25-4.48,2.26-1.08,4.85-1.62,7.78-1.62,4.3,0,7.76,1.07,10.4,3.2,2.64,2.13,4.15,4.88,4.55,8.25h-5.05c-.31-1.93-1.35-3.65-3.12-5.15-1.77-1.5-4.16-2.26-7.18-2.26-2.79,0-5.12.75-6.98,2.26-1.86,1.51-2.79,3.56-2.79,6.16,0,1.97.51,3.57,1.53,4.78,1.02,1.21,2.29,2.13,3.82,2.76,1.53.63,3.6,1.3,6.21,2.02,3.01.85,5.45,1.7,7.31,2.53,1.86.83,3.43,2.1,4.72,3.81s1.93,4,1.93,6.87c0,2.2-.58,4.29-1.73,6.26-1.15,1.98-2.86,3.57-5.12,4.78-2.26,1.21-4.96,1.82-8.11,1.82s-5.75-.54-8.08-1.62Z"/>
  </g>
  <g>
    <g>
      <path class="cls-2" d="M20.13,67.89c12.44-12.82,27.35-19.35,44.71-19.6,17.3.44,32.11,7.13,44.43,20.07.87.93,1.71,1.87,2.52,2.8,1,1.3,1.31,2.65.93,4.01-.37,1.37-1.23,2.35-2.57,2.94-1.34.59-2.94.42-4.81-.51-.81-1.37-1.65-2.7-2.52-4.01-9.27-13.38-21.97-20.57-38.08-21.56-16.18.75-28.94,7.78-38.27,21.1-8.22,12.63-12.32,26.51-12.32,41.63-.07,15,4.04,28.78,12.32,41.35,9.27,13.07,21.81,20.25,37.62,21.56,16.43-.12,29.43-6.88,39.02-20.25.75-1.18,1.46-2.4,2.15-3.64.75-1.12,1.8-1.71,3.17-1.77h.09c1.62.13,2.72.84,3.32,2.15.59,1.31.42,2.61-.51,3.92-1.06,1.19-2.11,2.33-3.17,3.46-12.13,12.51-26.82,19.32-44.06,20.44-17.86-.25-32.86-6.91-44.99-19.98C7.34,148.35,1.46,132.57,1.46,114.65c.37-17.92,6.59-33.51,18.67-46.77Z"/>
      <path class="cls-2" d="M64.19,183.42c-18.3-.25-33.8-7.13-46.16-20.44C6.05,149.1,0,132.85,0,114.66c.38-18.24,6.79-34.29,19.05-47.75l.03-.03c12.67-13.05,28.06-19.79,45.74-20.05,17.68.45,32.97,7.35,45.51,20.53.89.95,1.74,1.9,2.56,2.85,1.33,1.73,1.73,3.56,1.24,5.36-.49,1.78-1.66,3.13-3.39,3.89-1.75.77-3.79.59-6.05-.55l-.38-.19-.22-.37c-.8-1.34-1.63-2.66-2.48-3.95-8.95-12.9-21.39-19.95-36.96-20.92-15.47.72-27.97,7.61-36.98,20.48-7.99,12.29-12.06,26.03-12.06,40.79-.06,14.64,4,28.28,12.08,40.55,8.94,12.6,21.23,19.65,36.52,20.91,15.72-.12,28.45-6.73,37.71-19.65.68-1.09,1.38-2.28,2.05-3.49,1.07-1.61,2.56-2.45,4.39-2.53,2.99.22,4.24,1.76,4.81,3.01.8,1.79.58,3.64-.66,5.37-1.17,1.32-2.23,2.48-3.3,3.61-12.35,12.73-27.5,19.76-45.03,20.9ZM21.2,68.89c-11.76,12.91-17.91,28.32-18.27,45.79,0,17.45,5.82,33.05,17.29,46.34,11.76,12.66,26.54,19.22,43.91,19.47,16.66-1.09,31.17-7.82,42.98-20,1.04-1.1,2.08-2.23,3.13-3.41.71-1.01.52-1.79.27-2.34-.24-.54-.71-1.18-2.1-1.29-.82.04-1.44.39-1.93,1.13-.64,1.17-1.36,2.4-2.12,3.61-9.88,13.79-23.4,20.81-40.25,20.94-16.31-1.34-29.33-8.8-38.82-22.18-8.43-12.8-12.66-26.98-12.59-42.2,0-15.33,4.22-29.61,12.56-42.42,9.59-13.68,22.85-20.99,39.43-21.76,16.67,1.03,29.86,8.49,39.35,22.19.82,1.23,1.6,2.46,2.35,3.72,1.28.57,2.36.67,3.18.31.94-.41,1.49-1.04,1.75-1.99.25-.92.03-1.79-.69-2.74-.74-.85-1.57-1.77-2.43-2.69-11.98-12.58-26.58-19.18-43.4-19.61-16.81.24-31.51,6.68-43.61,19.14Z"/>
    </g>
    <g>
      <polygon class="cls-4" points="405.61 43.05 405.61 44.69 428.23 52.5 405.61 43.05"/>
      <polygon class="cls-4" points="405.61 40.51 405.61 42.16 428.23 49.96 405.61 40.51"/>
      <polygon class="cls-4" points="405.61 37.97 405.61 39.62 428.18 47.36 405.61 37.97"/>
      <path class="cls-4" d="M404.99,37.98l-20.69,5.06c-.93.39-1.53,1.3-1.53,2.3v5.32s6.1-2.03,11.36-3.3c4.54-1.1,10.85-2.66,10.85-2.66v-6.72Z"/>
      <path class="cls-3" d="M334.69,1.93h0c-1.33-2.52-4.91-2.59-6.34-.13l-102.28,176.3c-.05.08-.06.16-.1.25,5.8-9.51,19.7-30.79,40.04-52.77l40.77-67.99c1.47-2.45,5.07-2.31,6.35.24l10.11,20.22c12.06-7.55,25.55-14.7,40.52-20.92L334.69,1.93ZM424.35,183.55h-47.52c-1.39,0-2.65-.79-3.26-2.04l-37.23-76.85c8.01-2.86,15.69-5.09,22.83-6.79,8.33-1.98,16.29-3.42,23.7-4.47l44.69,84.84c1.27,2.41-.48,5.31-3.21,5.31"/>
      <path class="cls-4" d="M404.66,72.65l-4.93.89c-.31.06-.57-.16-.57-.47l-.02-6.77c0-.32.24-.66.54-.77l5.06-1.84c.06-.02.12-.03.18-.03l.1-9.13-5.4,1.24c-.28.14-.51,0-.51-.32v-3.43c-.01-.32.2-.72.46-.9l5.2-1.77c-.45-.79-1.35-1.27-2.32-1.06-12.37,2.62-31.63,10.02-38.02,12.66-15.03,6.22-28.54,13.39-40.6,20.97-19.87,12.48-35.8,26.04-47.99,38.23-10.41,10.41-18.87,20.54-25.61,29.5l-2.5,4.17c27.16-27.64,58.13-43.79,85.31-53.2,16.42-5.69,33.6-9.93,50.77-12.62,5.73-.9,11.49-1.47,17.24-2.15,2.06-.25,3.63-1.95,3.65-4.02l.1-9.2s-.1.02-.15.03M398.89,79.62c0,.32-.15.58-.34.59l-5.14.79h-.1c-.32.01-.58-.23-.58-.55v-4.53c-.02-.32.09-.59.22-.61.13-.02.49-.08.8-.14l.89-.15c.31-.05.82-.14,1.13-.2l.9-.16c.31-.05,1.37-.24,1.67-.29.3-.05.55.16.55.48v4.77ZM398.89,64.64c0,.32-.23.7-.54.77-.66.15-3.5.91-4.9,1.28-.39.1-.78-.19-.78-.6v-1.01c0-.32.23-.68.52-.81l5.17-1.69c.29-.13.52.02.52.34v1.71Z"/>
      <path class="cls-4" d="M414.41,57.83c0,.32-.05.55-.11.52-.06-.03-.34-.16-.63-.3l-2.26-1.06c-.29-.13-.52-.5-.52-.82v-3.46c0-.32.22-.45.5-.29l2.51,1.45c.27.16.5.55.5.86v3.08Z"/>
      <path class="cls-4" d="M405.61,55.53c0-.32.23-.47.52-.33l3.64,1.69c.29.13.52.5.52.82v6.28c0,.32-.24.49-.54.39l-3.57-1.21c-.3-.1-.55-.44-.55-.76l-.02-6.87Z"/>
      <path class="cls-4" d="M405.64,64.18c0-.32.24-.49.54-.39l3.57,1.2c.3.1.55.44.55.76v7.05c0,.32-.25.53-.57.48l-3.49-.58c-.31-.05-.57-.35-.57-.67l-.03-7.85Z"/>
      <path class="cls-4" d="M414.46,73.49c0,.32-.08.56-.18.55-.1-.02-.43-.07-.74-.13l-2.09-.35c-.31-.05-.57-.35-.57-.67v-6.94c0-.32.25-.49.55-.39l2,.67c.3.1.65.22.78.26.13.04.23.34.23.65l.02,6.35Z"/>
      <path class="cls-4" d="M405.67,73.78c0-.32.25-.53.56-.48l3.49.57c.31.05.57.35.57.67v5c0,.32-.26.57-.57.56l-2.48-.07c-.32,0-.79-.02-1.06-.03-.27,0-.49-.27-.49-.59l-.02-5.62Z"/>
      <path class="cls-4" d="M414.49,79.66c0,.32-.26.57-.57.56l-2.46-.07c-.32,0-.58-.28-.58-.59v-4.92c0-.32.26-.53.57-.48l2,.32c.31.05.67.11.79.13.12.02.22.29.23.61l.02,4.45Z"/>
      <path class="cls-4" d="M424.83,76.86c0-.32-.25-.61-.56-.66,0,0-.78-.12-1.45-.23-1.29-.2-3.3-.52-3.3-.52-.31-.05-.57.17-.57.48v3.87c0,.32.26.58.57.59,0,0,2.49.08,4.03.14.42.02.69.02.69.02.32.01.58-.24.58-.55l.02-3.15Z"/>
      <path class="cls-4" d="M424.86,70.6c0-.32-.24-.65-.54-.75l-.99-.33c-.3-.1-.79-.26-1.09-.36l-1.11-.37c-.3-.1-.79-.26-1.09-.36l-.54-.18c-.3-.1-.55.08-.55.39v5.6c0,.32.25.62.57.67,0,0,2.07.35,3.38.58.65.11,1.38.24,1.38.24.31.05.57-.16.57-.48l.02-4.66Z"/>
      <path class="cls-4" d="M427.95,83.39c.12-.01.22-.28.22-.59v-1.13c0-.32-.26-.58-.57-.58l-1.85-.03c-.32,0-.58.25-.58.56v1.44c0,.32.1.57.22.56.12-.01.48-.04.79-.07l.96-.08c.32-.03.67-.06.8-.07"/>
      <path class="cls-4" d="M425.72,70.31c-.3-.1-.55.08-.55.39v4.61c0,.32.25.62.57.67l1.88.33c.31.05.57-.16.57-.48v-4.15c0-.32-.24-.65-.54-.75l-1.92-.63Z"/>
      <path class="cls-4" d="M425.69,64.2c-.29-.13-.52.02-.52.34v4.55c0,.32.24.66.54.76l1.93.67c.3.1.54-.07.54-.39v-4.23c0-.32-.23-.68-.52-.81l-1.98-.9Z"/>
      <path class="cls-4" d="M425.65,57.52c-.26-.17-.48-.06-.48.26v5.13c0,.32.23.68.52.82l1.99.94c.28.14.52-.01.52-.33v-4.58c0-.32-.21-.72-.47-.89l-2.07-1.36Z"/>
      <path class="cls-4" d="M418,84.23c.25-.02.45-.3.45-.61v-2.15c0-.32-.25-.58-.57-.59l-2.3-.05c-.32,0-.57.25-.57.56v2.52c0,.32.2.56.45.54.25-.02.7-.06,1.02-.09l.51-.04c.32-.03.77-.07,1.02-.09"/>
      <path class="cls-4" d="M418.45,75.86c0-.32,0-.58-.01-.58,0,0-.28-.05-.59-.1l-2.28-.36c-.31-.05-.57.17-.57.48v4.38c0,.32.26.58.57.59l2.3.07c.32.01.57-.24.57-.56v-3.94Z"/>
      <path class="cls-4" d="M418.46,68.48c0-.32-.02-.58-.04-.59-.02,0-.29-.1-.59-.2l-2.28-.76c-.3-.1-.55.08-.55.39v6.25c0,.32.25.62.57.67l2.32.39c.31.05.57-.16.57-.48v-5.68Z"/>
      <path class="cls-4" d="M418.47,61.48c0-.32-.03-.59-.06-.6-.04-.02-.3-.14-.58-.27l-2.3-1.06c-.29-.13-.52.02-.52.33v5.71c0,.32.24.66.54.76l2.38.81c.3.1.54-.07.54-.39v-5.3Z"/>
      <path class="cls-4" d="M428.2,59.19l-3.03-1.99c1.01.66,2.02,1.32,3.03,1.99"/>
    </g>
    <g>
      <path class="cls-2" d="M502.79,48.19c4.54,0,9.02.69,13.44,2.06,4.42,1.37,8.59,3.52,12.51,6.44,3.98,2.93,7.16,6.66,9.52,11.2,2.36,4.61,3.58,9.52,3.64,14.75-.06,5.23-1.28,10.11-3.64,14.65-2.37,4.54-5.54,8.31-9.52,11.3-3.73,2.8-7.75,4.88-12.04,6.25-.06.06-.87.27-2.43.61-1.56.34-3.42.7-5.6,1.07-2.18.37-4.11.56-5.79.56h-4.01c3.79,2.11,7.03,4.67,9.71,7.65,5.79,6.41,10.18,13.44,13.16,21.09,1.12,2.55,2.15,5.13,3.08,7.75,1.62,4.54,3.51,8.99,5.69,13.35,1.43,2.74,3.36,5.26,5.79,7.56s5.45,3.7,9.06,4.2l1.77.09c.5,0,.89.16,1.17.47.28.31.42.69.42,1.12,0,.5-.16.9-.47,1.21-.31.31-.68.47-1.12.47-.75,0-1.46-.03-2.15-.09-8.96-.93-16.24-4.6-21.84-11.01-5.85-6.78-10.27-13.85-13.25-21.19-1.43-3.23-2.74-6.5-3.92-9.8-1.37-3.86-2.93-7.65-4.67-11.39-1.49-3.42-3.67-6.35-6.54-8.77-2.05-1.49-4.26-2.4-6.63-2.71h-23.99v58.53c0,1.74.61,3.24,1.82,4.48,1.21,1.25,2.72,1.9,4.53,1.96h-25.48c1.74-.06,3.2-.69,4.39-1.87,1.18-1.18,1.84-2.64,1.96-4.39V54.73c0-1.8-.61-3.33-1.82-4.57s-2.72-1.9-4.53-1.96h57.78ZM522.95,62.57c-2.24-3.18-5.13-5.73-8.68-7.65-3.55-1.87-7.37-2.83-11.48-2.89h-38.65v61.23h38.74c4.35-.19,8.15-1.15,11.39-2.89,3.55-1.99,6.44-4.54,8.68-7.65,2.18-3.11,3.73-6.38,4.67-9.8,1-3.42,1.49-6.84,1.49-10.27s-.5-6.84-1.49-10.27c-.93-3.42-2.49-6.69-4.67-9.8Z"/>
      <path class="cls-2" d="M547.13,183.51c-.79,0-1.55-.03-2.28-.1-9.32-.97-16.98-4.84-22.81-11.51-5.94-6.88-10.48-14.15-13.51-21.6-1.43-3.22-2.76-6.55-3.95-9.86-1.35-3.81-2.9-7.59-4.61-11.26-1.41-3.23-3.48-6.01-6.15-8.28-1.76-1.28-3.76-2.1-5.87-2.37h-22.34v57.08c0,1.36.46,2.49,1.4,3.46.95.98,2.11,1.47,3.53,1.52l-.05,2.93h-25.48l-.05-2.93c1.37-.05,2.48-.52,3.4-1.44.94-.93,1.44-2.06,1.54-3.45V54.73c0-1.42-.46-2.58-1.41-3.55s-2.1-1.47-3.53-1.52l.05-2.93h57.78c4.66,0,9.33.71,13.87,2.12,4.56,1.41,8.92,3.66,12.95,6.66,4.14,3.04,7.49,6.97,9.95,11.7,2.46,4.8,3.74,9.98,3.81,15.41-.07,5.47-1.34,10.62-3.81,15.35-2.46,4.72-5.8,8.68-9.94,11.79-3.81,2.86-7.95,5.02-12.33,6.44-.36.16-1.05.32-2.7.68-1.57.35-3.46.71-5.66,1.09-1.85.32-3.55.51-5.07.56,2.16,1.58,4.11,3.33,5.82,5.23,5.88,6.51,10.4,13.76,13.44,21.54,1.1,2.52,2.16,5.16,3.1,7.79,1.59,4.47,3.48,8.91,5.62,13.19,1.34,2.56,3.19,4.98,5.49,7.16,2.19,2.07,4.96,3.36,8.25,3.81l1.65.08h0c1.09,0,1.79.52,2.18.95.52.57.79,1.3.79,2.09,0,.89-.31,1.67-.9,2.25-.58.58-1.33.89-2.15.89ZM462.68,115.62h25.45c2.79.36,5.25,1.36,7.49,2.99,3.1,2.63,5.44,5.76,7.02,9.37,1.73,3.72,3.32,7.59,4.7,11.48,1.16,3.24,2.47,6.51,3.88,9.7,2.93,7.2,7.31,14.2,13.02,20.83,5.32,6.09,12.35,9.63,20.89,10.52.62.06,1.29.08,1.99.08h0s.08-.36.08-.36l-1.92-.07c-4.03-.55-7.35-2.09-9.99-4.6-2.53-2.4-4.57-5.07-6.08-7.95-2.21-4.4-4.15-8.95-5.77-13.53-.92-2.56-1.94-5.14-3.04-7.65-2.93-7.5-7.26-14.45-12.9-20.7-2.56-2.85-5.7-5.33-9.33-7.36l-4.92-2.74h9.64c1.59,0,3.45-.18,5.54-.54,2.15-.37,3.99-.72,5.53-1.06.95-.21,1.59-.36,1.95-.45h.01s.34-.12.34-.12c4.12-1.31,8.02-3.34,11.61-6.03,3.79-2.84,6.85-6.48,9.1-10.8,2.25-4.31,3.42-9.02,3.47-14-.06-4.93-1.23-9.68-3.48-14.06-2.25-4.31-5.31-7.91-9.09-10.69-3.77-2.81-7.83-4.91-12.07-6.22-4.26-1.32-8.64-1.99-13.01-1.99h-51.74c1.18,1.42,1.77,3.13,1.77,5.07v121.07c-.13,1.89-.74,3.47-1.82,4.79h13.44c-1.17-1.41-1.77-3.09-1.77-4.98v-59.99ZM499.71,114.72h-37.03V50.56h40.11c4.34.07,8.43,1.09,12.16,3.06,3.75,2.04,6.83,4.76,9.19,8.11h0c2.26,3.24,3.91,6.69,4.88,10.26,1.03,3.52,1.55,7.11,1.55,10.65s-.52,7.13-1.55,10.68c-.96,3.54-2.6,6.99-4.87,10.23-2.36,3.29-5.45,6-9.16,8.09-3.44,1.85-7.48,2.89-12.04,3.08h-3.24ZM465.61,111.79h37.28c4.05-.17,7.67-1.09,10.69-2.72,3.32-1.86,6.09-4.3,8.19-7.22,2.06-2.95,3.56-6.09,4.44-9.33.96-3.3,1.44-6.62,1.44-9.89s-.48-6.58-1.43-9.86c-.89-3.27-2.39-6.41-4.46-9.37-2.1-2.97-4.85-5.4-8.19-7.21-3.31-1.74-6.95-2.66-10.8-2.72h-37.16v58.31Z"/>
    </g>
    <g>
      <path class="cls-2" d="M577.16,182.05c1.8-.06,3.3-.69,4.48-1.87,1.18-1.18,1.84-2.64,1.96-4.39V54.73c0-1.8-.61-3.33-1.82-4.57s-2.75-1.9-4.62-1.96h57.87c4.54,0,8.99.69,13.35,2.06,4.48,1.37,8.68,3.52,12.6,6.44,3.98,2.93,7.16,6.66,9.52,11.2,2.36,4.61,3.55,9.52,3.55,14.75s-1.19,10.11-3.55,14.65c-2.37,4.54-5.54,8.31-9.52,11.3-3.73,2.8-7.75,4.88-12.04,6.25-.06.06-.89.27-2.47.61-1.58.34-3.47.7-5.65,1.07-2.18.37-4.08.56-5.69.56h-38.83v58.53c0,1.74.61,3.24,1.82,4.48,1.21,1.25,2.75,1.9,4.62,1.96h-25.58ZM635.04,52.02h-38.74v61.23h38.83c4.35-.19,8.15-1.15,11.39-2.89,3.48-1.99,6.38-4.54,8.68-7.65,2.18-3.11,3.73-6.38,4.67-9.8,1-3.42,1.49-6.84,1.49-10.27s-.5-6.84-1.49-10.27c-.93-3.42-2.49-6.69-4.67-9.8-2.24-3.18-5.13-5.73-8.68-7.65-3.55-1.87-7.37-2.83-11.48-2.89Z"/>
      <path class="cls-2" d="M602.74,183.51h-25.58l-.05-2.93c1.43-.05,2.57-.52,3.49-1.44.94-.93,1.44-2.06,1.54-3.45V54.73c0-1.42-.46-2.58-1.41-3.55s-2.13-1.47-3.62-1.52l.05-2.93h57.87c4.67,0,9.31.71,13.79,2.12,4.61,1.41,9,3.65,13.03,6.66,4.14,3.04,7.49,6.97,9.95,11.7,2.46,4.81,3.71,10,3.71,15.43s-1.25,10.59-3.71,15.33c-2.46,4.72-5.8,8.68-9.94,11.79-3.8,2.85-7.95,5.02-12.32,6.43-.36.16-1.05.32-2.77.69-1.6.35-3.5.71-5.71,1.08-2.25.39-4.25.58-5.94.58h-37.37v57.06c0,1.36.46,2.49,1.4,3.46.95.98,2.13,1.47,3.62,1.52l-.05,2.93ZM583.25,180.59h13.35c-1.17-1.41-1.77-3.09-1.77-4.98v-59.99h40.3c1.53,0,3.36-.18,5.45-.54,2.15-.37,4.01-.72,5.58-1.06.97-.21,1.63-.36,1.99-.45h0s.34-.12.34-.12c4.12-1.31,8.02-3.34,11.61-6.03,3.79-2.84,6.85-6.48,9.1-10.8,2.24-4.31,3.38-9.02,3.38-13.98s-1.14-9.7-3.38-14.08c-2.25-4.31-5.31-7.91-9.09-10.69-3.77-2.81-7.86-4.9-12.16-6.22-4.21-1.33-8.55-1.99-12.92-1.99h-51.74c1.17,1.42,1.77,3.13,1.77,5.07v121.07c-.13,1.89-.74,3.47-1.82,4.79ZM631.96,114.72h-37.12V50.56h40.22c4.32.07,8.41,1.09,12.14,3.06,3.75,2.04,6.83,4.76,9.19,8.11,2.27,3.24,3.91,6.69,4.88,10.26,1.02,3.52,1.54,7.11,1.54,10.65s-.52,7.13-1.55,10.68c-.96,3.54-2.6,6.99-4.87,10.23-2.44,3.29-5.51,6-9.15,8.08-3.45,1.86-7.49,2.89-12.05,3.09h-3.24ZM597.76,111.79h37.37c4.05-.17,7.67-1.09,10.69-2.72,3.26-1.86,6.03-4.3,8.2-7.23,2.05-2.93,3.55-6.08,4.43-9.31.96-3.3,1.44-6.62,1.44-9.89s-.48-6.58-1.43-9.86c-.89-3.27-2.39-6.41-4.46-9.37-2.1-2.97-4.85-5.4-8.18-7.21-3.3-1.74-6.94-2.66-10.79-2.72h-37.26v58.31Z"/>
    </g>
    <g>
      <path class="cls-2" d="M717.25,48.19v.09h71.13v12.7c-3.98-1.8-7.36-3.28-10.13-4.43s-5.46-2.18-8.07-3.08-4.54-1.35-5.79-1.35h-47.14v59.18h33.51c.62,0,1.96-.22,4.01-.66,2.05-.43,4.26-.95,6.63-1.54,2.36-.59,5.29-1.35,8.77-2.29v12.79c-3.48-.93-6.41-1.68-8.77-2.24-2.36-.56-4.57-1.07-6.63-1.54-2.06-.47-3.39-.7-4.01-.7h-33.51v63.1h47.23c1.18,0,3.08-.45,5.69-1.35s5.3-1.93,8.07-3.08,6.15-2.66,10.13-4.53v12.79h-90.26c1.8-.06,3.31-.71,4.53-1.96,1.21-1.24,1.82-2.77,1.82-4.57V54.73c0-1.8-.61-3.33-1.82-4.57s-2.72-1.9-4.53-1.96h19.13Z"/>
      <path class="cls-2" d="M789.84,183.51h-91.73l-.05-2.93c1.43-.05,2.58-.55,3.53-1.52.95-.97,1.41-2.13,1.41-3.55V54.73c0-1.42-.46-2.58-1.41-3.55s-2.1-1.47-3.53-1.52l.05-2.93,91.73.09v16.43l-2.07-.94c-3.97-1.79-7.33-3.27-10.09-4.41-2.77-1.15-5.46-2.18-7.99-3.05-3.05-1.05-4.57-1.27-5.31-1.27h-45.68v56.25h32.05c.29,0,1.16-.08,3.71-.62,2.04-.43,4.23-.94,6.57-1.53,2.36-.59,5.28-1.35,8.75-2.28l1.84-.5v16.6l-1.84-.49c-3.47-.93-6.38-1.67-8.73-2.23-2.36-.56-4.57-1.07-6.61-1.54-2.63-.6-3.46-.66-3.69-.66h-32.05v60.17h45.77c.7,0,2.16-.22,5.22-1.27,2.56-.89,5.25-1.91,7.99-3.05,2.73-1.13,6.12-2.65,10.07-4.5l2.08-.98v16.55ZM704.16,180.59h82.76v-9.03c-3.11,1.44-5.83,2.64-8.1,3.58-2.79,1.16-5.54,2.21-8.16,3.11-2.8.97-4.82,1.43-6.17,1.43h-48.7v-66.02h34.97c.48,0,1.44.07,4.34.74,2.06.47,4.27.98,6.64,1.54,1.95.46,4.27,1.04,6.97,1.76v-8.98c-2.7.72-5.02,1.32-6.96,1.8-2.38.6-4.61,1.12-6.68,1.55-2.9.61-3.85.69-4.32.69h-34.97v-62.11h48.6c1.42,0,3.47.47,6.26,1.43,2.59.89,5.33,1.94,8.16,3.11,2.29.95,4.99,2.12,8.1,3.52v-8.97l-82.76-.09c1.17,1.42,1.77,3.13,1.77,5.07v120.79c0,1.95-.59,3.65-1.77,5.07Z"/>
    </g>
    <g>
      <path class="cls-2" d="M935.75,50.06c-1.25,1.31-1.87,2.83-1.87,4.57v120.79c0,1.31.37,2.52,1.12,3.64l.19.19c1.18,1.68,2.89,2.61,5.13,2.8h-19.04l-91.66-121.07-2.52-3.27v117.7c0,1.81.61,3.33,1.82,4.57,1.21,1.25,2.72,1.93,4.53,2.06h-16.61c1.87-.12,3.39-.81,4.57-2.06,1.24-1.24,1.87-2.77,1.87-4.57V54.63c0-2.49-1.15-4.39-3.45-5.69-.07-.06-.13-.09-.19-.09h-.09c-.69-.31-1.4-.5-2.15-.56-.19-.06-.37-.09-.56-.09h19.04l94.18,124.43V54.63c0-2.49-1.15-4.39-3.45-5.69-.06-.06-.12-.09-.19-.09-.87-.43-1.77-.66-2.71-.66h16.62-.19c-1.74.13-3.21.75-4.39,1.87Z"/>
      <path class="cls-2" d="M940.32,183.51h-19.77l-91.99-121.5v113.41c0,1.42.46,2.59,1.4,3.55.96.99,2.13,1.52,3.58,1.62l-.1,2.92h-16.61l-.1-2.92c1.5-.1,2.68-.62,3.61-1.6,1-1,1.47-2.15,1.47-3.57V54.64c0-1.93-.83-3.32-2.62-4.37l-.26-.09c-.54-.24-1.08-.39-1.66-.44l-.44-.09v-2.93h19.77l91.99,121.53V54.64c0-1.96-.85-3.36-2.68-4.4l-.15-.07c-.68-.34-1.35-.5-2.06-.5v-2.93h16.62v2.93c-1.48.1-2.61.57-3.54,1.44-.97,1.03-1.44,2.18-1.44,3.54v120.79c0,1.02.29,1.95.87,2.83,1.09,1.48,2.42,2.19,4.23,2.34l-.12,2.92ZM922.01,180.59h12.36c-.13-.16-.26-.32-.38-.5-1.11-1.58-1.57-3.08-1.57-4.67V54.64c0-1.86.59-3.53,1.74-4.98h-4.4c1.15,1.37,1.75,3.05,1.75,4.98v122.34l-96.37-127.32h-12.16c1.15,1.37,1.75,3.05,1.75,4.98v120.79c0,1.99-.63,3.73-1.88,5.17h4.63c-1.22-1.44-1.84-3.17-1.84-5.17V53.43l5.14,6.66,91.23,120.5Z"/>
    </g>
    <path class="cls-1" d="M1013.86,55.09h-33.89c-1.24,0-3.16.45-5.74,1.35s-5.26,1.94-8.03,3.13c-2.77,1.18-6.15,2.68-10.13,4.48v-12.79h128.25v12.79c-3.92-1.8-7.27-3.3-10.04-4.48s-5.46-2.22-8.07-3.13-4.54-1.35-5.79-1.35h-33.79v123.59c0,1.74.61,3.23,1.82,4.48s2.72,1.9,4.53,1.96h-25.48c1.8-.06,3.31-.71,4.53-1.96s1.82-2.74,1.82-4.48V55.09Z"/>
    <g>
      <path class="cls-1" d="M1124.07,51.26v.09h71.13v12.69c-3.98-1.8-7.36-3.28-10.13-4.43s-5.46-2.18-8.07-3.08-4.54-1.35-5.79-1.35h-47.14v59.18h33.51c.62,0,1.96-.22,4.01-.65,2.05-.44,4.26-.95,6.63-1.54,2.36-.59,5.29-1.35,8.77-2.29v12.79c-3.48-.93-6.41-1.68-8.77-2.24-2.36-.56-4.57-1.07-6.63-1.54-2.06-.46-3.39-.7-4.01-.7h-33.51v63.1h47.23c1.18,0,3.08-.45,5.69-1.35,2.61-.9,5.3-1.93,8.07-3.08s6.15-2.66,10.13-4.53v12.79h-90.26c1.8-.06,3.31-.71,4.53-1.96s1.82-2.77,1.82-4.57V57.8c0-1.81-.61-3.33-1.82-4.58-1.21-1.24-2.72-1.9-4.53-1.96h19.13Z"/>
      <path class="cls-1" d="M1281.43,51.26c4.54,0,9.02.69,13.44,2.05,4.42,1.37,8.59,3.52,12.51,6.44,3.98,2.93,7.16,6.66,9.52,11.2,2.36,4.6,3.58,9.52,3.64,14.75-.06,5.22-1.28,10.11-3.64,14.65-2.37,4.54-5.54,8.31-9.52,11.29-3.73,2.8-7.75,4.89-12.04,6.25-.06.06-.87.27-2.43.61s-3.42.7-5.6,1.07c-2.18.37-4.11.56-5.79.56h-4.01c3.79,2.12,7.03,4.67,9.71,7.65,5.79,6.41,10.18,13.44,13.16,21.1,1.12,2.55,2.15,5.13,3.08,7.75,1.62,4.54,3.51,8.99,5.69,13.35,1.43,2.74,3.36,5.26,5.79,7.56,2.43,2.31,5.45,3.71,9.06,4.2l1.77.09c.5,0,.89.16,1.17.47.28.31.42.68.42,1.12,0,.5-.16.9-.47,1.21s-.68.46-1.12.46c-.75,0-1.46-.03-2.15-.09-8.96-.93-16.24-4.6-21.84-11.01-5.85-6.78-10.27-13.84-13.25-21.19-1.43-3.23-2.74-6.5-3.92-9.8-1.37-3.86-2.93-7.65-4.67-11.39-1.49-3.42-3.67-6.35-6.54-8.77-2.05-1.49-4.26-2.39-6.63-2.71h-23.99v58.53c0,1.74.61,3.23,1.82,4.48s2.72,1.9,4.53,1.96h-25.48c1.74-.06,3.2-.68,4.39-1.87s1.84-2.65,1.96-4.39V57.8c0-1.81-.61-3.33-1.82-4.58-1.21-1.24-2.72-1.9-4.53-1.96h57.78ZM1301.59,65.64c-2.24-3.17-5.13-5.72-8.68-7.65-3.55-1.87-7.37-2.83-11.48-2.89h-38.65v61.23h38.74c4.35-.19,8.15-1.15,11.39-2.89,3.55-1.99,6.44-4.54,8.68-7.65,2.18-3.11,3.73-6.38,4.67-9.8,1-3.42,1.49-6.84,1.49-10.27s-.5-6.85-1.49-10.27c-.93-3.42-2.49-6.69-4.67-9.8Z"/>
      <path class="cls-1" d="M1362.15,146.85V57.8c0-1.81-.61-3.33-1.82-4.58-1.21-1.24-2.72-1.9-4.53-1.96h25.48c-1.81.06-3.31.71-4.53,1.96-1.21,1.25-1.82,2.77-1.82,4.58v120.88c0,1.74.61,3.23,1.82,4.48s2.72,1.9,4.53,1.96h-25.48c1.8-.06,3.31-.71,4.53-1.96s1.82-2.74,1.82-4.48v-31.83Z"/>
      <path class="cls-1" d="M1428.87,51.26v.09h71.13v12.69c-3.98-1.8-7.36-3.28-10.13-4.43s-5.46-2.18-8.07-3.08-4.54-1.35-5.79-1.35h-47.14v59.18h33.51c.62,0,1.96-.22,4.01-.65,2.05-.44,4.26-.95,6.63-1.54,2.36-.59,5.29-1.35,8.77-2.29v12.79c-3.48-.93-6.41-1.68-8.77-2.24-2.36-.56-4.57-1.07-6.63-1.54-2.06-.46-3.39-.7-4.01-.7h-33.51v63.1h47.23c1.18,0,3.08-.45,5.69-1.35,2.61-.9,5.3-1.93,8.07-3.08s6.15-2.66,10.13-4.53v12.79h-90.26c1.8-.06,3.31-.71,4.53-1.96s1.82-2.77,1.82-4.57V57.8c0-1.81-.61-3.33-1.82-4.58-1.21-1.24-2.72-1.9-4.53-1.96h19.13Z"/>
    </g>
    <path class="cls-2" d="M230.19,180.59h13.39c-1.17-1.41-1.77-3.09-1.77-4.98v-15.29c-4.07,5.66-7.38,10.6-9.86,14.47v.95c-.03,1.84-.62,3.47-1.77,4.85Z"/>
    <path class="cls-2" d="M243.58,49.66h-13.4c1.18,1.42,1.77,3.13,1.77,5.07v14.73l-.81.4-78.01,39.05v-54.18c0-1.95.59-3.65,1.77-5.07h-13.39c1.17,1.42,1.77,3.13,1.77,5.07v120.88c0,1.89-.59,3.57-1.76,4.98h13.39c-1.14-1.38-1.73-3.01-1.76-4.85v-65.9l.81-.41,78.01-38.95v91.18l9.86-17V54.73c0-1.95.6-3.65,1.77-5.07Z"/>
    <path class="cls-2" d="M231.95,161.66v-91.18l-78.01,38.95-.81.41v65.9c.03,1.84.62,3.47,1.76,4.85h-13.39c1.17-1.41,1.76-3.09,1.76-4.98V54.73c0-1.95-.59-3.65-1.77-5.07h13.39c-1.17,1.42-1.77,3.13-1.77,5.07v54.18l78.01-39.05.81-.4v-14.73c0-1.95-.59-3.65-1.77-5.07h13.4c-1.17,1.42-1.77,3.13-1.77,5.07v89.93l2.93-5.04V54.73c0-1.42.46-2.58,1.41-3.55s2.1-1.47,3.53-1.52l-.05-2.93h-25.48l-.05,2.93c1.43.05,2.58.55,3.53,1.52s1.41,2.13,1.41,3.55v12.92l-72.96,36.53v-49.45c0-1.42.46-2.58,1.4-3.55.95-.97,2.11-1.47,3.53-1.52l-.05-2.93h-25.49l-.05,2.93c1.43.05,2.58.55,3.53,1.52.95.97,1.4,2.13,1.4,3.55v120.88c0,1.36-.46,2.49-1.4,3.46-.95.97-2.1,1.47-3.53,1.52l.05,2.93h25.49l.05-2.93c-1.43-.05-2.58-.55-3.53-1.52-.94-.96-1.4-2.1-1.4-3.46v-63.96l72.96-36.44v91.49l2.93-5.04Z"/>
    <path class="cls-2" d="M241.81,160.32v15.29c0,1.89.59,3.57,1.77,4.98h-13.39c1.14-1.38,1.74-3.01,1.77-4.85v-.95c-1.32,2.06-2.44,3.84-3.28,5.22-.6.98-1.64,1.52-2.71,1.52-.52,0-1.04-.13-1.53-.4-.13-.07-.22-.19-.34-.28l.05,2.66h25.48l.05-2.93c-1.43-.05-2.58-.55-3.53-1.52-.95-.97-1.4-2.1-1.4-3.46v-19.3c-1.02,1.37-1.99,2.71-2.93,4.01Z"/>
  </g>
</svg>