<?xml version="1.0" encoding="utf-8"?>
<!-- Generator: Adobe Illustrator 28.1.0, SVG Export Plug-In . SVG Version: 6.00 Build 0)  -->
<svg version="1.1" id="Capa_1" xmlns="http://www.w3.org/2000/svg" xmlns:xlink="http://www.w3.org/1999/xlink" x="0px" y="0px"
	 viewBox="0 0 1200 277.9" style="enable-background:new 0 0 1200 277.9;" xml:space="preserve">
<style type="text/css">
	.st0{fill:#D5C48F;}
	.st1{fill:#443960;}
	.st2{fill:#242149;}
</style>
<g>
	<polygon class="st0" points="270.3,65.6 270.3,68.1 304.4,79.8 	"/>
	<polygon class="st0" points="270.3,61.8 270.3,64.3 304.4,76 	"/>
	<polygon class="st0" points="270.3,58 270.3,60.4 304.3,72.1 	"/>
	<path class="st0" d="M269.4,58l-31.1,7.6c-1.4,0.6-2.3,1.9-2.3,3.5v8c0,0,9.2-3,17.1-5c6.8-1.7,16.3-4,16.3-4V58z"/>
	<path class="st1" d="M260.9,275.4c-1.5,1.1-2.4,1.6-1.7,1.6h36.4c1.8,0,4.1,0.3,6.2-1.2l75.3-53.4C379,221.7,5,269.6,5,269.6
		c-0.1,0-0.2,0-0.3,0.1c14.3-2.7,171-15.8,208.6-22.2l102.2-11.8c3.7-0.7,5.9-0.7,3.8,0L260.9,275.4z"/>
	<path class="st2" d="M163.6,3.7L163.6,3.7c-2-3.8-7.4-3.9-9.5-0.2L0.2,268.8c-0.1,0.1-0.1,0.2-0.2,0.4
		c8.7-14.3,29.6-46.3,60.3-79.4l61.4-102.3c2.2-3.7,7.6-3.5,9.5,0.4l15.2,30.4c18.2-11.4,38.5-22.1,61-31.5L163.6,3.7z M298.5,277
		H227c-2.1,0-4-1.2-4.9-3.1l-56-115.6c12.1-4.3,23.6-7.7,34.3-10.2c12.5-3,24.5-5.1,35.7-6.7L303.4,269
		C305.3,272.7,302.6,277,298.5,277z"/>
	<g>
		<polygon class="st2" points="455,88.1 519.8,185.5 490.3,185.5 455.2,133.8 419.6,185.4 390.2,185.5 		"/>
		<path class="st2" d="M636.8,164.3l0.1,21h-43.2c-16,0-29.6-4.8-41.1-14.2c-11.1-9.2-16.6-20.2-16.6-33.2v-2.3
			c0-12.6,5.5-23.5,16.6-32.7c10.6-8.8,24.4-13.5,41.2-14.2h0.1v0.1h42.9l0.1,21.4h-42.9c-10,0.2-17.5,3.1-22.6,8.9
			c-5.1,5.8-7.6,11.9-7.6,18.5c0,6.6,2.5,12.8,7.6,18.6c5,5.8,12.4,8.5,22.2,8.1H636.8z"/>
		<path class="st2" d="M702.7,185l-27-0.1l0.3-97l62.9-0.1c9.2,0.4,16.4,2,21.6,4.8c5.2,2.8,9.2,6.9,12.1,12.3
			c2.9,5.4,3.7,11.6,2.4,18.5c-1.3,7-7.3,12.6-17.9,16.8l29.5,44.8l-28.7-0.1l-34.6-52.2l16.5-0.2c5.7-1.7,8.5-6,8.7-12.8
			c0.1-6.8-4.5-10.4-13.8-10.8l-32,0.2V185z"/>
		<path class="st2" d="M702.7,185l-27-0.1l0.3-97l62.9-0.1c9.2,0.4,16.4,2,21.6,4.8c5.2,2.8,9.2,6.9,12.1,12.3
			c2.9,5.4,3.7,11.6,2.4,18.5c-1.3,7-7.3,12.6-17.9,16.8l29.5,44.8l-28.7-0.1l-34.6-52.2l16.5-0.2c5.7-1.7,8.5-6,8.7-12.8
			c0.1-6.8-4.5-10.4-13.8-10.8l-32,0.2V185z"/>
		<polygon class="st2" points="914.6,165 914.8,185.3 813.7,185.3 813.7,89.1 914.8,89.1 914.8,109 840.8,109 840.8,126.5 
			902.8,126.5 902.8,147.2 840.8,147.2 840.7,165 		"/>
		<path class="st2" d="M997.4,137.5h-20.6c-17.7-2.2-26.6-8.8-26.7-19.9c0.9-19.7,17.4-29.6,49.5-29.6h57.2v21.3h-58.1
			c-13.8-0.1-20.8,4.7-20.9,14.4c0,8.6,7,12.7,21.1,12.2h11.5l-0.1,0.1h20.6c17.7,2.2,26.6,8.8,26.7,19.9
			c-0.9,19.7-17.4,29.6-49.5,29.6H952l0.1-20.9l25.8-0.1v0.1h31.3c13.8,0.1,20.7-4.8,20.7-14.7c0-8.6-7-12.7-21.2-12.2L997.4,137.5
			L997.4,137.5z"/>
		<path class="st2" d="M1139.7,137.5h-20.6c-17.7-2.2-26.6-8.8-26.7-19.9c0.9-19.7,17.4-29.6,49.5-29.6h27l11.7,21.3h-39.5
			c-13.8-0.1-20.8,4.7-20.9,14.4c0,8.6,7,12.7,21.1,12.2h11.4l-0.1,0.1h20.6c17.7,2.2,26.6,8.8,26.7,19.9
			c-0.9,19.7-17.4,29.6-49.5,29.6h-56.1l0.1-20.9l25.8-0.1v0.1h31.3c13.8,0.1,20.7-4.8,20.7-14.7c0-8.6-7-12.7-21.2-12.2
			L1139.7,137.5L1139.7,137.5z"/>
	</g>
	<path class="st0" d="M268.9,110.2l-7.4,1.3c-0.5,0.1-0.9-0.2-0.9-0.7l0-10.2c0-0.5,0.4-1,0.8-1.2l7.6-2.8c0.1,0,0.2,0,0.3,0
		l0.2-13.7l-8.1,1.9c-0.4,0.2-0.8,0-0.8-0.5l0-5.2c0-0.5,0.3-1.1,0.7-1.4l7.8-2.7c-0.7-1.2-2-1.9-3.5-1.6
		C247,77.4,218,88.6,208.4,92.5c-22.6,9.4-43,20.2-61.1,31.6c-29.9,18.8-53.9,39.2-72.2,57.5c-15.7,15.7-28.4,30.9-38.5,44.4
		l-3.8,6.3c40.9-41.6,87.5-65.9,128.4-80.1c24.7-8.6,50.6-14.9,76.4-19c8.6-1.3,17.3-2.2,25.9-3.2c3.1-0.4,5.5-2.9,5.5-6l0.2-13.8
		C269.1,110.1,269,110.1,268.9,110.2 M260.2,120.6c0,0.5-0.2,0.9-0.5,0.9l-7.7,1.2l-0.2,0c-0.5,0-0.9-0.4-0.9-0.8l0-6.8
		c0-0.5,0.2-0.9,0.3-0.9c0.2,0,0.7-0.1,1.2-0.2l1.3-0.2c0.5-0.1,1.2-0.2,1.7-0.3l1.3-0.2c0.5-0.1,2.1-0.4,2.5-0.4
		c0.5-0.1,0.8,0.2,0.8,0.7V120.6z M260.2,98.1c0,0.5-0.3,1.1-0.8,1.2c-1,0.2-5.3,1.4-7.4,1.9c-0.6,0.2-1.2-0.3-1.2-0.9l0-1.5
		c0-0.5,0.4-1,0.8-1.2l7.8-2.5c0.4-0.2,0.8,0,0.8,0.5V98.1z"/>
	<path class="st0" d="M283.6,87.8c0,0.5-0.1,0.8-0.2,0.8c-0.1,0-0.5-0.2-0.9-0.4l-3.4-1.6c-0.4-0.2-0.8-0.8-0.8-1.2v-5.2
		c0-0.5,0.3-0.7,0.7-0.4l3.8,2.2c0.4,0.2,0.7,0.8,0.8,1.3L283.6,87.8z"/>
	<path class="st0" d="M270.3,84.4c0-0.5,0.4-0.7,0.8-0.5l5.5,2.5c0.4,0.2,0.8,0.8,0.8,1.2v9.4c0,0.5-0.4,0.7-0.8,0.6l-5.4-1.8
		c-0.5-0.2-0.8-0.7-0.8-1.1L270.3,84.4z"/>
	<path class="st0" d="M270.4,97.4c0-0.5,0.4-0.7,0.8-0.6l5.4,1.8c0.5,0.2,0.8,0.7,0.8,1.1v10.6c0,0.5-0.4,0.8-0.9,0.7l-5.3-0.9
		c-0.5-0.1-0.9-0.5-0.9-1L270.4,97.4z"/>
	<path class="st0" d="M283.7,111.4c0,0.5-0.1,0.8-0.3,0.8c-0.1,0-0.7-0.1-1.1-0.2l-3.2-0.5c-0.5-0.1-0.9-0.5-0.9-1v-10.4
		c0-0.5,0.4-0.7,0.8-0.6l3,1c0.4,0.2,1,0.3,1.2,0.4c0.2,0.1,0.3,0.5,0.4,1L283.7,111.4z"/>
	<path class="st0" d="M270.4,111.9c0-0.5,0.4-0.8,0.8-0.7l5.3,0.9c0.5,0.1,0.9,0.5,0.9,1v7.5c0,0.5-0.4,0.9-0.9,0.8l-3.7-0.1
		c-0.5,0-1.2,0-1.6,0c-0.4,0-0.7-0.4-0.7-0.9L270.4,111.9z"/>
	<path class="st0" d="M283.7,120.7c0,0.5-0.4,0.9-0.9,0.8l-3.7-0.1c-0.5,0-0.9-0.4-0.9-0.9v-7.4c0-0.5,0.4-0.8,0.9-0.7l3,0.5
		c0.5,0.1,1,0.2,1.2,0.2c0.2,0,0.3,0.4,0.3,0.9L283.7,120.7z"/>
	<path class="st0" d="M299.2,116.5c0-0.5-0.4-0.9-0.8-1c0,0-1.2-0.2-2.2-0.3c-1.9-0.3-5-0.8-5-0.8c-0.5-0.1-0.9,0.3-0.9,0.7v5.8
		c0,0.5,0.4,0.9,0.9,0.9c0,0,3.8,0.1,6.1,0.2c0.6,0,1,0,1,0c0.5,0,0.9-0.4,0.9-0.8L299.2,116.5z"/>
	<path class="st0" d="M299.3,107.1c0-0.5-0.4-1-0.8-1.1l-1.5-0.5c-0.5-0.1-1.2-0.4-1.6-0.5l-1.7-0.6c-0.5-0.1-1.2-0.4-1.6-0.5
		l-0.8-0.3c-0.5-0.1-0.8,0.1-0.8,0.6v8.4c0,0.5,0.4,0.9,0.9,1c0,0,3.1,0.5,5.1,0.9c1,0.2,2.1,0.4,2.1,0.4c0.5,0.1,0.9-0.2,0.9-0.7
		L299.3,107.1z"/>
	<path class="st0" d="M303.9,126.3c0.2,0,0.3-0.4,0.3-0.9l0-1.7c0-0.5-0.4-0.9-0.9-0.9l-2.8,0c-0.5,0-0.9,0.4-0.9,0.8v2.2
		c0,0.5,0.2,0.9,0.3,0.8c0.2,0,0.7-0.1,1.2-0.1l1.4-0.1C303.2,126.4,303.8,126.3,303.9,126.3"/>
	<path class="st0" d="M300.6,106.6c-0.5-0.1-0.8,0.1-0.8,0.6v6.9c0,0.5,0.4,0.9,0.9,1l2.8,0.5c0.5,0.1,0.9-0.2,0.9-0.7l0-6.2
		c0-0.5-0.4-1-0.8-1.1L300.6,106.6z"/>
	<path class="st0" d="M300.5,97.4c-0.4-0.2-0.8,0-0.8,0.5v6.8c0,0.5,0.4,1,0.8,1.1l2.9,1c0.4,0.2,0.8-0.1,0.8-0.6l0-6.4
		c0-0.5-0.4-1-0.8-1.2L300.5,97.4z"/>
	<path class="st0" d="M300.5,87.4c-0.4-0.3-0.7-0.1-0.7,0.4v7.7c0,0.5,0.4,1,0.8,1.2l3,1.4c0.4,0.2,0.8,0,0.8-0.5l0-6.9
		c0-0.5-0.3-1.1-0.7-1.3L300.5,87.4z"/>
	<path class="st0" d="M289,127.6c0.4,0,0.7-0.4,0.7-0.9l0-3.2c0-0.5-0.4-0.9-0.9-0.9l-3.5-0.1c-0.5,0-0.9,0.4-0.9,0.8v3.8
		c0,0.5,0.3,0.8,0.7,0.8c0.4,0,1.1-0.1,1.5-0.1l0.8-0.1C287.9,127.7,288.6,127.6,289,127.6z"/>
	<path class="st0" d="M289,127.6c0.4,0,0.7-0.4,0.7-0.9l0-3.2c0-0.5-0.4-0.9-0.9-0.9l-3.5-0.1c-0.5,0-0.9,0.4-0.9,0.8v3.8
		c0,0.5,0.3,0.8,0.7,0.8c0.4,0,1.1-0.1,1.5-0.1l0.8-0.1C287.9,127.7,288.6,127.6,289,127.6z"/>
	<path class="st0" d="M289.7,115c0-0.5,0-0.9,0-0.9c0,0-0.4-0.1-0.9-0.1l-3.4-0.5c-0.5-0.1-0.9,0.3-0.9,0.7v6.6
		c0,0.5,0.4,0.9,0.9,0.9l3.5,0.1c0.5,0,0.9-0.4,0.9-0.8L289.7,115z"/>
	<path class="st0" d="M289.7,103.9c0-0.5,0-0.9-0.1-0.9c0,0-0.4-0.1-0.9-0.3l-3.4-1.1c-0.5-0.2-0.8,0.1-0.8,0.6v9.4
		c0,0.5,0.4,0.9,0.9,1l3.5,0.6c0.5,0.1,0.9-0.2,0.9-0.7L289.7,103.9z"/>
	<path class="st0" d="M289.7,93.3c0-0.5,0-0.9-0.1-0.9c-0.1,0-0.4-0.2-0.9-0.4l-3.5-1.6c-0.4-0.2-0.8,0-0.8,0.5v8.6
		c0,0.5,0.4,1,0.8,1.1l3.6,1.2c0.4,0.2,0.8-0.1,0.8-0.6L289.7,93.3z"/>
	<path class="st0" d="M304.3,89.9l-4.6-3C301.3,87.9,302.8,88.9,304.3,89.9"/>
	<g>
		<path class="st0" d="M391.7,261.3l1.3-2.8c1.9,1.7,5.1,2.9,8.3,2.9c4.3,0,6.2-1.7,6.2-3.9c0-6.1-15.2-2.3-15.2-11.6
			c0-3.9,3-7.2,9.6-7.2c2.9,0,6,0.8,8.1,2.2l-1.2,2.9c-2.2-1.4-4.7-2-6.9-2c-4.3,0-6.1,1.8-6.1,4c0,6.1,15.2,2.3,15.2,11.5
			c0,3.8-3.1,7.1-9.7,7.1C397.4,264.5,393.7,263.2,391.7,261.3z"/>
		<path class="st0" d="M413.3,251.6c0-7.4,5.7-12.8,13.4-12.8c7.6,0,13.3,5.5,13.3,12.8c0,7.4-5.7,12.8-13.3,12.8
			C419,264.5,413.3,259,413.3,251.6z M436.4,251.6c0-5.6-4.2-9.7-9.7-9.7c-5.6,0-9.8,4.1-9.8,9.7c0,5.6,4.2,9.7,9.8,9.7
			C432.3,261.3,436.4,257.2,436.4,251.6z"/>
		<path class="st0" d="M444.6,239.1h3.6v22h13.6v3.1h-17.2V239.1z"/>
		<path class="st0" d="M464.4,253.4v-14.3h3.6v14.1c0,5.6,2.5,8.1,7.1,8.1s7.1-2.5,7.1-8.1v-14.1h3.5v14.3c0,7.3-4,11.1-10.6,11.1
			C468.4,264.5,464.4,260.6,464.4,253.4z"/>
		<path class="st0" d="M490,251.6c0-7.4,5.7-12.8,13.3-12.8c3.9,0,7.2,1.3,9.5,3.9l-2.3,2.3c-1.9-2-4.3-3-7.1-3
			c-5.7,0-9.9,4.1-9.9,9.7c0,5.6,4.2,9.7,9.9,9.7c2.8,0,5.1-1,7.1-3l2.3,2.3c-2.3,2.6-5.7,3.9-9.6,3.9
			C495.7,264.5,490,259.1,490,251.6z"/>
		<path class="st0" d="M517.1,239.1h3.6v25.1h-3.6V239.1z"/>
		<path class="st0" d="M525.3,251.6c0-7.4,5.7-12.8,13.4-12.8c7.6,0,13.3,5.5,13.3,12.8c0,7.4-5.7,12.8-13.3,12.8
			C531,264.5,525.3,259,525.3,251.6z M548.4,251.6c0-5.6-4.2-9.7-9.7-9.7c-5.6,0-9.8,4.1-9.8,9.7c0,5.6,4.2,9.7,9.8,9.7
			C544.2,261.3,548.4,257.2,548.4,251.6z"/>
		<path class="st0" d="M578.2,239.1v25.1h-2.9l-15.1-18.7v18.7h-3.6v-25.1h2.9l15.1,18.7v-18.7H578.2z"/>
		<path class="st0" d="M603.1,261.1v3.1h-18.2v-25.1h17.7v3.1h-14.1v7.7H601v3.1h-12.6v8.1H603.1z"/>
		<path class="st0" d="M605.7,261.3l1.3-2.8c1.9,1.7,5.1,2.9,8.3,2.9c4.3,0,6.2-1.7,6.2-3.9c0-6.1-15.2-2.3-15.2-11.6
			c0-3.9,3-7.2,9.6-7.2c2.9,0,6,0.8,8.1,2.2l-1.2,2.9c-2.2-1.4-4.7-2-6.9-2c-4.3,0-6.1,1.8-6.1,4c0,6.1,15.2,2.3,15.2,11.5
			c0,3.8-3.1,7.1-9.7,7.1C611.4,264.5,607.7,263.2,605.7,261.3z"/>
		<path class="st0" d="M638.1,239.1h3.6v25.1h-3.6V239.1z"/>
		<path class="st0" d="M669.9,239.1v25.1H667l-15.1-18.7v18.7h-3.6v-25.1h2.9l15.1,18.7v-18.7H669.9z"/>
		<path class="st0" d="M699.9,264.2l0-18.3l-9.1,15.3h-1.7L680,246v18.2h-3.4v-25.1h2.9l10.5,17.7l10.3-17.7h2.9l0,25.1H699.9z"/>
		<path class="st0" d="M707.9,251.6c0-7.4,5.7-12.8,13.4-12.8c7.6,0,13.3,5.5,13.3,12.8c0,7.4-5.7,12.8-13.3,12.8
			C713.6,264.5,707.9,259,707.9,251.6z M731,251.6c0-5.6-4.2-9.7-9.7-9.7c-5.6,0-9.8,4.1-9.8,9.7c0,5.6,4.2,9.7,9.8,9.7
			C726.8,261.3,731,257.2,731,251.6z"/>
		<path class="st0" d="M760.8,257.4c0,4.3-3.3,6.8-9.6,6.8h-12v-25.1h11.3c5.8,0,9,2.4,9,6.5c0,2.7-1.4,4.6-3.4,5.6
			C758.9,252,760.8,254.1,760.8,257.4z M742.8,242v8h7.4c3.7,0,5.7-1.4,5.7-4c0-2.7-2.1-4-5.7-4H742.8z M757.2,257.1
			c0-2.9-2.2-4.2-6.1-4.2h-8.3v8.4h8.3C755,261.3,757.2,260,757.2,257.1z"/>
		<path class="st0" d="M765.4,239.1h3.6v25.1h-3.6V239.1z"/>
		<path class="st0" d="M775.7,239.1h3.6v22h13.6v3.1h-17.2V239.1z"/>
		<path class="st0" d="M796.1,239.1h3.6v25.1h-3.6V239.1z"/>
		<path class="st0" d="M822.3,257.9H809l-2.8,6.3h-3.7l11.4-25.1h3.6l11.4,25.1h-3.8L822.3,257.9z M821.1,255.1l-5.4-12.3l-5.4,12.3
			H821.1z"/>
		<path class="st0" d="M848.5,264.2l-5.4-7.7c-0.5,0-1,0.1-1.6,0.1h-6.2v7.6h-3.6v-25.1h9.8c6.5,0,10.5,3.3,10.5,8.8
			c0,3.9-2,6.7-5.5,7.9l6,8.4H848.5z M848.4,247.8c0-3.6-2.4-5.6-7-5.6h-6.1v11.3h6.1C846,253.5,848.4,251.4,848.4,247.8z"/>
		<path class="st0" d="M856.9,239.1h3.6v25.1h-3.6V239.1z"/>
		<path class="st0" d="M883.1,257.9h-13.4l-2.8,6.3h-3.7l11.4-25.1h3.6l11.4,25.1h-3.8L883.1,257.9z M881.8,255.1l-5.4-12.3
			l-5.4,12.3H881.8z"/>
		<path class="st0" d="M890.2,261.3l1.3-2.8c1.9,1.7,5.1,2.9,8.3,2.9c4.3,0,6.2-1.7,6.2-3.9c0-6.1-15.2-2.3-15.2-11.6
			c0-3.9,3-7.2,9.6-7.2c2.9,0,6,0.8,8.1,2.2l-1.2,2.9c-2.2-1.4-4.7-2-6.9-2c-4.3,0-6.1,1.8-6.1,4c0,6.1,15.2,2.3,15.2,11.5
			c0,3.8-3.1,7.1-9.7,7.1C895.9,264.5,892.2,263.2,890.2,261.3z"/>
		<path class="st0" d="M922.6,239.1h3.6v25.1h-3.6V239.1z"/>
		<path class="st0" d="M954.4,239.1v25.1h-2.9l-15.1-18.7v18.7h-3.6v-25.1h2.9l15.1,18.7v-18.7H954.4z"/>
		<path class="st0" d="M982.7,239.1v25.1h-2.9l-15.1-18.7v18.7h-3.6v-25.1h2.9l15.1,18.7v-18.7H982.7z"/>
		<path class="st0" d="M987.3,251.6c0-7.4,5.7-12.8,13.4-12.8c7.6,0,13.3,5.5,13.3,12.8c0,7.4-5.7,12.8-13.3,12.8
			C992.9,264.5,987.3,259,987.3,251.6z M1010.4,251.6c0-5.6-4.2-9.7-9.7-9.7c-5.6,0-9.8,4.1-9.8,9.7c0,5.6,4.2,9.7,9.8,9.7
			C1006.2,261.3,1010.4,257.2,1010.4,251.6z"/>
		<path class="st0" d="M1039.6,239.1l-11,25.1h-3.6l-11.1-25.1h3.9l9,20.6l9.1-20.6H1039.6z"/>
		<path class="st0" d="M1057.1,257.9h-13.4l-2.8,6.3h-3.7l11.4-25.1h3.6l11.4,25.1h-3.8L1057.1,257.9z M1055.8,255.1l-5.4-12.3
			l-5.4,12.3H1055.8z"/>
		<path class="st0" d="M1066.5,239.1h10.6c8.1,0,13.6,5.1,13.6,12.6c0,7.5-5.5,12.6-13.6,12.6h-10.6V239.1z M1076.8,261.1
			c6.2,0,10.2-3.8,10.2-9.4c0-5.6-4-9.4-10.2-9.4h-6.8v18.9H1076.8z"/>
		<path class="st0" d="M1093.2,251.6c0-7.4,5.7-12.8,13.4-12.8c7.6,0,13.3,5.5,13.3,12.8c0,7.4-5.7,12.8-13.3,12.8
			C1098.8,264.5,1093.2,259,1093.2,251.6z M1116.3,251.6c0-5.6-4.2-9.7-9.7-9.7c-5.6,0-9.8,4.1-9.8,9.7c0,5.6,4.2,9.7,9.8,9.7
			C1112.1,261.3,1116.3,257.2,1116.3,251.6z"/>
		<path class="st0" d="M1141.2,264.2l-5.4-7.7c-0.5,0-1,0.1-1.6,0.1h-6.2v7.6h-3.6v-25.1h9.8c6.5,0,10.5,3.3,10.5,8.8
			c0,3.9-2,6.7-5.5,7.9l6,8.4H1141.2z M1141.1,247.8c0-3.6-2.4-5.6-7-5.6h-6.1v11.3h6.1C1138.7,253.5,1141.1,251.4,1141.1,247.8z"/>
		<path class="st0" d="M1165.6,257.9h-13.4l-2.8,6.3h-3.7l11.4-25.1h3.6l11.4,25.1h-3.8L1165.6,257.9z M1164.4,255.1l-5.4-12.3
			l-5.4,12.3H1164.4z"/>
		<path class="st0" d="M1172.7,261.3l1.3-2.8c1.9,1.7,5.1,2.9,8.3,2.9c4.3,0,6.2-1.7,6.2-3.9c0-6.1-15.2-2.3-15.2-11.6
			c0-3.9,3-7.2,9.6-7.2c2.9,0,6,0.8,8.1,2.2l-1.2,2.9c-2.2-1.4-4.7-2-6.9-2c-4.3,0-6.1,1.8-6.1,4c0,6.1,15.2,2.3,15.2,11.5
			c0,3.8-3.1,7.1-9.7,7.1C1178.5,264.5,1174.7,263.2,1172.7,261.3z"/>
	</g>
</g>
</svg>
