<?xml version="1.0" encoding="UTF-8"?>
<svg id="Capa_1" data-name="Capa 1" xmlns="http://www.w3.org/2000/svg" viewBox="0 0 1500 303.1">
  <defs>
    <style>
      .cls-1 {
        fill: #fff;
        stroke-width: 0px;
      }
    </style>
  </defs>
  <g>
    <path class="cls-1" d="M311.28,278.12c1.83-2.46,2.75-5.3,2.75-8.52,0-2.64-.6-4.99-1.79-7.05-1.19-2.06-2.99-3.69-5.4-4.9s-5.36-1.81-8.84-1.81h-14.91v46.8h6.03v-19.14h7.29l11,19.14h7.22l-11.59-19.61c3.67-.81,6.42-2.44,8.25-4.9ZM289.12,278.59v-17.73h8.88c3.31,0,5.77.76,7.39,2.28,1.61,1.52,2.42,3.67,2.42,6.45s-.82,4.91-2.45,6.54c-1.63,1.63-4.09,2.45-7.35,2.45h-8.88Z"/>
    <polygon class="cls-1" points="330 302.62 354.85 302.62 354.85 297.59 336.03 297.59 336.03 281.48 352.86 281.48 352.86 276.44 336.03 276.44 336.03 260.79 354.85 260.79 354.85 255.76 330 255.76 330 302.62"/>
    <path class="cls-1" d="M393.87,279.02c-1.86-.83-4.31-1.67-7.35-2.52-2.52-.72-4.47-1.35-5.86-1.91s-2.56-1.38-3.51-2.45c-.95-1.08-1.42-2.46-1.42-4.16,0-2.37.79-4.22,2.39-5.54,1.59-1.32,3.64-1.98,6.16-1.98,2.69,0,4.86.68,6.49,2.05s2.56,2.94,2.78,4.74h6.63c-.35-3.63-1.91-6.54-4.67-8.73-2.76-2.19-6.31-3.29-10.64-3.29-3,0-5.66.54-7.98,1.61-2.32,1.08-4.12,2.6-5.4,4.57s-1.92,4.23-1.92,6.78c0,2.91.65,5.22,1.95,6.95,1.3,1.72,2.87,2.99,4.7,3.79s4.27,1.61,7.32,2.42c2.47.67,4.44,1.3,5.9,1.88,1.46.58,2.67,1.43,3.64,2.55.97,1.12,1.46,2.57,1.46,4.37,0,2.28-.83,4.15-2.48,5.61-1.66,1.46-3.92,2.18-6.79,2.18s-5.29-.75-6.86-2.25c-1.57-1.5-2.46-3.35-2.68-5.54h-6.43c.04,2.55.75,4.8,2.12,6.75,1.37,1.95,3.26,3.47,5.67,4.57,2.41,1.1,5.13,1.64,8.18,1.64s5.94-.63,8.28-1.88c2.34-1.25,4.11-2.89,5.3-4.9,1.19-2.02,1.79-4.16,1.79-6.45,0-2.95-.66-5.29-1.99-7.02-1.33-1.73-2.92-3-4.77-3.83Z"/>
    <rect class="cls-1" x="416.13" y="255.82" width="6.03" height="46.8"/>
    <path class="cls-1" d="M466.52,258.68c-3.69-1.9-8.05-2.85-13.09-2.85h-14.38v46.8h14.38c5.04,0,9.4-.93,13.09-2.79s6.52-4.54,8.48-8.06c1.96-3.51,2.95-7.67,2.95-12.46s-.98-8.95-2.95-12.49c-1.97-3.53-4.79-6.25-8.48-8.16ZM467.09,292.79c-3.14,3.2-7.69,4.8-13.65,4.8h-8.35v-36.79h8.35c5.92,0,10.46,1.63,13.62,4.9,3.16,3.27,4.74,7.81,4.74,13.63s-1.57,10.26-4.7,13.46Z"/>
    <polygon class="cls-1" points="492.53 302.62 517.38 302.62 517.38 297.59 498.56 297.59 498.56 281.48 515.39 281.48 515.39 276.44 498.56 276.44 498.56 260.79 517.38 260.79 517.38 255.76 492.53 255.76 492.53 302.62"/>
    <polygon class="cls-1" points="563.42 292.95 539.17 255.76 533.14 255.76 533.14 302.62 539.17 302.62 539.17 265.36 563.42 302.62 569.45 302.62 569.45 255.76 563.42 255.76 563.42 292.95"/>
    <path class="cls-1" d="M598.47,262.88c2.56-1.52,5.45-2.28,8.68-2.28s6.24.76,8.65,2.28c2.41,1.52,4.25,3.69,5.53,6.51h7.22c-1.72-4.52-4.46-8.01-8.22-10.48-3.75-2.46-8.15-3.69-13.18-3.69-4.28,0-8.18,1.03-11.7,3.09-3.51,2.06-6.28,4.91-8.31,8.56-2.03,3.65-3.05,7.76-3.05,12.32s1.01,8.66,3.05,12.29c2.03,3.63,4.8,6.46,8.31,8.5,3.51,2.04,7.41,3.05,11.7,3.05,5.04,0,9.43-1.22,13.18-3.66,3.75-2.44,6.49-5.9,8.22-10.38h-7.22c-1.28,2.82-3.13,4.98-5.53,6.48-2.41,1.5-5.29,2.25-8.65,2.25s-6.12-.76-8.68-2.28-4.57-3.68-6.03-6.48c-1.46-2.8-2.19-6.05-2.19-9.77s.73-7.04,2.19-9.84,3.47-4.96,6.03-6.48Z"/>
    <rect class="cls-1" x="644.12" y="255.82" width="6.03" height="46.8"/>
    <path class="cls-1" d="M680.83,256.09l-16.7,46.53h6.36l3.71-10.41h20.14l3.71,10.41h6.36l-16.63-46.53h-6.96ZM675.93,287.25l8.35-23.64,8.35,23.64h-16.7Z"/>
    <path class="cls-1" d="M741.59,279.02c-1.86-.83-4.31-1.67-7.35-2.52-2.52-.72-4.47-1.35-5.86-1.91s-2.56-1.38-3.51-2.45c-.95-1.08-1.42-2.46-1.42-4.16,0-2.37.79-4.22,2.39-5.54,1.59-1.32,3.64-1.98,6.16-1.98,2.69,0,4.86.68,6.49,2.05s2.56,2.94,2.78,4.74h6.63c-.35-3.63-1.91-6.54-4.67-8.73-2.76-2.19-6.31-3.29-10.64-3.29-3,0-5.66.54-7.98,1.61-2.32,1.08-4.12,2.6-5.4,4.57s-1.92,4.23-1.92,6.78c0,2.91.65,5.22,1.95,6.95,1.3,1.72,2.87,2.99,4.7,3.79s4.27,1.61,7.32,2.42c2.47.67,4.44,1.3,5.9,1.88,1.46.58,2.67,1.43,3.64,2.55.97,1.12,1.46,2.57,1.46,4.37,0,2.28-.83,4.15-2.48,5.61-1.66,1.46-3.92,2.18-6.79,2.18s-5.29-.75-6.86-2.25c-1.57-1.5-2.46-3.35-2.68-5.54h-6.43c.04,2.55.75,4.8,2.12,6.75,1.37,1.95,3.26,3.47,5.67,4.57,2.41,1.1,5.13,1.64,8.18,1.64s5.94-.63,8.28-1.88c2.34-1.25,4.11-2.89,5.3-4.9,1.19-2.02,1.79-4.16,1.79-6.45,0-2.95-.66-5.29-1.99-7.02-1.33-1.73-2.92-3-4.77-3.83Z"/>
    <polygon class="cls-1" points="802.41 279.53 791.02 255.82 784.32 255.82 799.43 284.96 799.43 302.62 805.46 302.62 805.46 284.96 820.5 255.82 813.81 255.82 802.41 279.53"/>
    <polygon class="cls-1" points="888.08 292.95 863.83 255.76 857.8 255.76 857.8 302.62 863.83 302.62 863.83 265.36 888.08 302.62 894.11 302.62 894.11 255.76 888.08 255.76 888.08 292.95"/>
    <polygon class="cls-1" points="911.01 302.62 935.85 302.62 935.85 297.59 917.04 297.59 917.04 281.48 933.86 281.48 933.86 276.44 917.04 276.44 917.04 260.79 935.85 260.79 935.85 255.76 911.01 255.76 911.01 302.62"/>
    <path class="cls-1" d="M970.37,282.35h18.42c-.49,4.66-2.19,8.35-5.1,11.08-2.92,2.73-6.63,4.1-11.13,4.1-3.23,0-6.13-.75-8.71-2.25-2.58-1.5-4.62-3.64-6.1-6.41-1.48-2.78-2.22-6-2.22-9.67s.74-6.9,2.22-9.7c1.48-2.8,3.51-4.94,6.1-6.45,2.58-1.5,5.49-2.25,8.71-2.25s6.05.75,8.48,2.25c2.43,1.5,4.28,3.61,5.56,6.35h7.22c-1.72-4.48-4.47-7.94-8.25-10.41s-8.12-3.69-13.02-3.69c-4.28,0-8.19,1.02-11.73,3.06s-6.33,4.88-8.38,8.53-3.08,7.76-3.08,12.32,1.03,8.66,3.08,12.29c2.05,3.63,4.85,6.46,8.38,8.5,3.53,2.04,7.44,3.05,11.73,3.05,4.06,0,7.75-.93,11.07-2.79,3.31-1.85,5.98-4.39,8.02-7.59s3.23-6.73,3.58-10.57v-4.7h-24.85v4.97Z"/>
    <path class="cls-1" d="M1042.53,258.34c-3.53-2.04-7.46-3.06-11.79-3.06s-8.19,1.02-11.73,3.06-6.33,4.88-8.38,8.53-3.08,7.76-3.08,12.32,1.03,8.67,3.08,12.32,4.85,6.49,8.38,8.53,7.44,3.06,11.73,3.06,8.26-1.02,11.79-3.06,6.32-4.87,8.35-8.49c2.03-3.63,3.05-7.75,3.05-12.36s-1.02-8.73-3.05-12.36-4.81-6.46-8.35-8.49ZM1045.54,288.99c-1.48,2.82-3.51,4.99-6.1,6.51s-5.49,2.28-8.71,2.28-6.13-.76-8.71-2.28-4.62-3.69-6.1-6.51c-1.48-2.82-2.22-6.09-2.22-9.8s.74-7.04,2.22-9.84c1.48-2.8,3.5-4.96,6.06-6.48,2.56-1.52,5.48-2.28,8.75-2.28s6.18.76,8.75,2.28c2.56,1.52,4.58,3.68,6.06,6.48,1.48,2.8,2.22,6.08,2.22,9.84s-.74,6.98-2.22,9.8Z"/>
    <path class="cls-1" d="M1080.62,262.88c2.56-1.52,5.45-2.28,8.68-2.28s6.24.76,8.65,2.28c2.41,1.52,4.25,3.69,5.53,6.51h7.22c-1.72-4.52-4.46-8.01-8.22-10.48-3.75-2.46-8.15-3.69-13.18-3.69-4.28,0-8.18,1.03-11.7,3.09-3.51,2.06-6.28,4.91-8.31,8.56-2.03,3.65-3.05,7.76-3.05,12.32s1.01,8.66,3.05,12.29c2.03,3.63,4.8,6.46,8.31,8.5,3.51,2.04,7.41,3.05,11.7,3.05,5.04,0,9.43-1.22,13.18-3.66,3.75-2.44,6.49-5.9,8.22-10.38h-7.22c-1.28,2.82-3.13,4.98-5.53,6.48-2.41,1.5-5.29,2.25-8.65,2.25s-6.12-.76-8.68-2.28-4.57-3.68-6.03-6.48c-1.46-2.8-2.19-6.05-2.19-9.77s.73-7.04,2.19-9.84,3.47-4.96,6.03-6.48Z"/>
    <rect class="cls-1" x="1126.28" y="255.82" width="6.03" height="46.8"/>
    <path class="cls-1" d="M1181.93,258.34c-3.53-2.04-7.46-3.06-11.79-3.06s-8.19,1.02-11.73,3.06-6.33,4.88-8.38,8.53-3.08,7.76-3.08,12.32,1.03,8.67,3.08,12.32,4.85,6.49,8.38,8.53,7.44,3.06,11.73,3.06,8.26-1.02,11.79-3.06,6.32-4.87,8.35-8.49c2.03-3.63,3.05-7.75,3.05-12.36s-1.02-8.73-3.05-12.36-4.81-6.46-8.35-8.49ZM1184.95,288.99c-1.48,2.82-3.51,4.99-6.1,6.51s-5.49,2.28-8.71,2.28-6.13-.76-8.71-2.28-4.62-3.69-6.1-6.51c-1.48-2.82-2.22-6.09-2.22-9.8s.74-7.04,2.22-9.84c1.48-2.8,3.5-4.96,6.06-6.48,2.56-1.52,5.48-2.28,8.75-2.28s6.18.76,8.75,2.28c2.56,1.52,4.58,3.68,6.06,6.48,1.48,2.8,2.22,6.08,2.22,9.84s-.74,6.98-2.22,9.8Z"/>
    <path class="cls-1" d="M1235.93,282.85c-1.33-1.73-2.92-3-4.77-3.83-1.86-.83-4.31-1.67-7.35-2.52-2.52-.72-4.47-1.35-5.86-1.91s-2.56-1.38-3.51-2.45c-.95-1.08-1.42-2.46-1.42-4.16,0-2.37.79-4.22,2.39-5.54,1.59-1.32,3.64-1.98,6.16-1.98,2.69,0,4.86.68,6.49,2.05s2.56,2.94,2.78,4.74h6.63c-.35-3.63-1.91-6.54-4.67-8.73-2.76-2.19-6.31-3.29-10.64-3.29-3,0-5.66.54-7.98,1.61-2.32,1.08-4.12,2.6-5.4,4.57s-1.92,4.23-1.92,6.78c0,2.91.65,5.22,1.95,6.95,1.3,1.72,2.87,2.99,4.7,3.79s4.27,1.61,7.32,2.42c2.47.67,4.44,1.3,5.9,1.88,1.46.58,2.67,1.43,3.64,2.55.97,1.12,1.46,2.57,1.46,4.37,0,2.28-.83,4.15-2.48,5.61-1.66,1.46-3.92,2.18-6.79,2.18s-5.29-.75-6.86-2.25c-1.57-1.5-2.46-3.35-2.68-5.54h-6.43c.04,2.55.75,4.8,2.12,6.75,1.37,1.95,3.26,3.47,5.67,4.57,2.41,1.1,5.13,1.64,8.18,1.64s5.94-.63,8.28-1.88c2.34-1.25,4.11-2.89,5.3-4.9,1.19-2.02,1.79-4.16,1.79-6.45,0-2.95-.66-5.29-1.99-7.02Z"/>
  </g>
  <g>
    <path class="cls-1" d="M112.05,66.33c-12.73-13.37-28.28-20.38-46.26-20.83-17.96.26-33.58,7.1-46.49,20.41C6.88,79.54.39,95.82,0,114.32c0,18.44,6.15,34.91,18.3,48.98,12.56,13.52,28.33,20.5,46.87,20.76h.05s.05,0,.05,0c17.78-1.16,33.14-8.29,45.68-21.2,1.07-1.14,2.14-2.3,3.39-3.73,1.46-2.06,1.74-4.38.77-6.54-.7-1.54-2.28-3.43-5.93-3.69-2.22.1-4.05,1.16-5.36,3.14-.66,1.19-1.35,2.36-1.97,3.36-8.99,12.55-21.32,18.97-36.53,19.1-14.88-1.23-26.83-8.08-35.52-20.32-7.92-12.02-11.91-25.4-11.85-39.77,0-14.49,3.98-27.96,11.81-39.99,8.76-12.51,20.86-19.2,35.83-19.91,15.15.94,27.24,7.78,35.93,20.33.84,1.26,1.66,2.56,2.44,3.88l.4.67.69.35c2.59,1.3,4.95,1.49,7.05.57,2.06-.91,3.46-2.52,4.04-4.66.59-2.17.1-4.37-1.48-6.43-.83-.96-1.69-1.92-2.59-2.88Z"/>
    <polygon class="cls-1" points="405.6 44.56 428.15 52.34 405.6 42.92 405.6 44.56"/>
    <polygon class="cls-1" points="405.6 42.03 428.15 49.81 405.6 40.39 405.6 42.03"/>
    <polygon class="cls-1" points="405.6 37.86 405.6 39.5 428.1 47.22 405.6 37.86"/>
    <path class="cls-1" d="M404.98,44.56v-6.7l-20.62,5.05c-.93.38-1.53,1.29-1.52,2.3v5.31s6.08-2.02,11.33-3.29c4.53-1.1,10.82-2.65,10.82-2.65Z"/>
    <path class="cls-1" d="M382.92,93.12c-7.39,1.05-15.32,2.48-23.63,4.46-7.12,1.69-14.77,3.91-22.76,6.77l37.11,76.62c.6,1.25,1.87,2.04,3.25,2.04h47.38c2.72,0,4.46-2.89,3.2-5.29l-44.56-84.59Z"/>
    <path class="cls-1" d="M226.49,177.83c5.78-9.48,19.64-30.7,39.93-52.61l40.65-67.79c1.47-2.44,5.05-2.31,6.33.24l10.08,20.16c12.03-7.53,25.48-14.66,40.4-20.86L334.89,1.93c-1.32-2.51-4.89-2.58-6.32-.13l-101.98,175.78c-.05.08-.06.16-.1.24Z"/>
    <path class="cls-1" d="M401.06,85.59c2.05-.25,3.62-1.94,3.64-4.01l.1-9.17s-.1.02-.15.03l-4.91.89c-.31.06-.56-.16-.57-.47l-.02-6.75c0-.32.24-.66.54-.77l5.05-1.84c.06-.02.12-.03.17-.03l.1-9.11-5.38,1.24c-.28.14-.51,0-.51-.31v-3.42c-.01-.32.2-.72.46-.9l5.19-1.76c-.45-.79-1.35-1.26-2.31-1.06-12.33,2.62-31.54,9.99-37.91,12.62-14.98,6.2-28.46,13.35-40.48,20.91-19.81,12.44-35.69,25.96-47.85,38.12-10.37,10.38-18.82,20.48-25.53,29.42l-2.49,4.16c27.08-27.56,57.96-43.66,85.06-53.04,16.37-5.67,33.5-9.9,50.62-12.58,5.71-.89,11.45-1.46,17.19-2.15ZM398.89,79.38c0,.31-.15.58-.34.58l-5.12.79h-.1c-.32.01-.57-.23-.57-.55v-4.51c-.02-.32.09-.59.22-.61.13-.02.49-.08.8-.14l.89-.15c.31-.05.82-.14,1.13-.2l.89-.15c.31-.05,1.36-.24,1.67-.29.3-.05.55.16.55.48v4.75ZM392.7,64.89c0-.32.23-.68.52-.81l5.15-1.68c.29-.13.52.02.52.34v1.7c0,.32-.23.7-.54.77-.66.15-3.49.91-4.88,1.28-.39.1-.78-.19-.78-.6v-1.01Z"/>
    <path class="cls-1" d="M413.63,57.89c.29.13.57.27.63.29.06.03.11-.21.11-.52v-3.07c-.01-.32-.24-.7-.51-.86l-2.5-1.45c-.27-.16-.5-.03-.5.29v3.45c0,.31.23.68.52.82l2.25,1.05Z"/>
    <path class="cls-1" d="M409.74,56.72l-3.63-1.68c-.29-.13-.52.02-.52.33l.02,6.85c0,.31.25.66.55.76l3.56,1.2c.3.1.54-.07.54-.39v-6.26c0-.32-.23-.68-.52-.81Z"/>
    <path class="cls-1" d="M410.26,65.56c0-.32-.24-.66-.54-.76l-3.56-1.2c-.3-.1-.54.07-.54.39l.03,7.83c0,.31.26.61.57.67l3.48.57c.31.05.57-.16.57-.48v-7.02Z"/>
    <path class="cls-1" d="M410.86,72.68c0,.32.25.61.57.67l2.09.35c.31.05.64.11.74.13.1.02.18-.23.17-.54l-.02-6.33c0-.31-.11-.61-.23-.65-.13-.04-.48-.16-.78-.26l-1.99-.67c-.3-.1-.54.08-.54.39v6.92Z"/>
    <path class="cls-1" d="M409.7,73.66l-3.48-.57c-.31-.05-.56.17-.56.48l.02,5.61c0,.31.22.58.49.59.27,0,.74.02,1.06.03l2.48.07c.31,0,.57-.24.57-.56v-4.98c0-.32-.25-.61-.57-.67Z"/>
    <path class="cls-1" d="M410.86,79.32c0,.32.26.58.57.59l2.45.07c.32.01.57-.24.57-.55l-.02-4.43c0-.32-.1-.59-.23-.61-.12-.02-.48-.08-.79-.13l-1.99-.32c-.31-.05-.57.17-.57.48v4.9Z"/>
    <path class="cls-1" d="M418.89,79.57c0,.31.26.58.57.59,0,0,2.49.08,4.02.14.42.02.69.02.69.02.31.01.57-.24.57-.55l.02-3.14c0-.32-.25-.61-.56-.66,0,0-.78-.12-1.45-.23-1.29-.2-3.29-.52-3.29-.52-.31-.05-.57.17-.57.48v3.86Z"/>
    <path class="cls-1" d="M422.83,75.27c.65.11,1.37.24,1.37.24.31.05.57-.16.57-.48l.02-4.64c0-.32-.24-.65-.54-.75l-.99-.33c-.3-.1-.79-.26-1.09-.36l-1.11-.37c-.3-.1-.79-.26-1.09-.36l-.54-.18c-.3-.1-.54.08-.54.39v5.59c0,.32.25.62.56.67,0,0,2.06.35,3.37.58Z"/>
    <path class="cls-1" d="M427.52,80.84l-1.85-.03c-.31,0-.57.25-.57.56v1.43c0,.32.1.56.22.55.12-.01.48-.04.79-.07l.96-.08c.31-.03.67-.06.79-.07.12-.01.22-.28.22-.59v-1.12c0-.32-.26-.58-.57-.58Z"/>
    <path class="cls-1" d="M427.56,70.73l-1.92-.63c-.3-.1-.54.08-.54.39v4.6c0,.32.25.62.57.67l1.87.33c.31.05.57-.16.57-.47v-4.14c0-.32-.24-.65-.54-.75Z"/>
    <path class="cls-1" d="M427.59,64.91l-1.97-.9c-.29-.13-.52.02-.52.34v4.54c0,.32.24.66.54.76l1.92.67c.3.1.54-.07.54-.38v-4.22c0-.32-.23-.68-.51-.81Z"/>
    <path class="cls-1" d="M427.64,58.7l-2.06-1.35c-.26-.17-.48-.06-.48.26v5.11c0,.31.23.68.52.82l1.98.94c.28.14.52-.01.52-.33v-4.57c0-.32-.21-.72-.47-.89Z"/>
    <path class="cls-1" d="M417.82,80.65l-2.29-.05c-.32,0-.57.24-.57.56v2.51c0,.32.2.56.44.54.24-.02.7-.06,1.02-.09l.51-.04c.31-.03.77-.07,1.02-.09.24-.02.45-.3.45-.61v-2.14c0-.32-.25-.58-.57-.59Z"/>
    <path class="cls-1" d="M414.96,79.44c0,.32.26.58.57.59l2.29.07c.31.01.57-.24.57-.55v-3.92c0-.32,0-.57,0-.57,0,0-.28-.05-.59-.09l-2.27-.36c-.31-.05-.57.17-.57.48v4.36Z"/>
    <path class="cls-1" d="M414.96,73.37c0,.31.25.62.56.67l2.31.39c.31.05.57-.16.57-.48v-5.66c0-.31-.01-.58-.04-.59-.02,0-.29-.1-.59-.2l-2.28-.76c-.3-.1-.54.08-.54.39v6.23Z"/>
    <path class="cls-1" d="M415.5,66.15l2.37.81c.3.1.54-.07.54-.39v-5.28c0-.32-.02-.59-.05-.6-.03-.02-.3-.14-.58-.27l-2.3-1.06c-.29-.13-.52.02-.52.33v5.69c0,.32.24.66.54.76Z"/>
    <path class="cls-1" d="M546.83,175.61h0l-1.54-.07c-3.02-.42-5.57-1.59-7.57-3.49-2.2-2.09-3.96-4.38-5.23-6.81-2.12-4.24-3.99-8.61-5.55-13.01-.95-2.64-2-5.28-3.1-7.79-3.08-7.89-7.66-15.24-13.61-21.84-1.1-1.23-2.3-2.4-3.59-3.5.7-.09,1.42-.2,2.16-.32,2.22-.38,4.12-.75,5.7-1.09,1.85-.41,2.47-.57,2.8-.71,4.49-1.45,8.74-3.67,12.64-6.59,4.27-3.2,7.72-7.3,10.26-12.16,2.54-4.88,3.86-10.2,3.93-15.87-.07-5.6-1.39-10.94-3.93-15.89-2.54-4.87-5.99-8.93-10.26-12.07-4.13-3.08-8.59-5.38-13.27-6.82-4.65-1.44-9.42-2.17-14.19-2.17h-58.77l-.09,5.24,1.16.04c1.12.04,1.98.41,2.71,1.16.73.75,1.07,1.61,1.07,2.72v120.52c-.07,1.1-.45,1.96-1.18,2.69-.71.71-1.53,1.05-2.59,1.09l-1.17.04.09,5.25h27.74l.09-5.25-1.16-.04c-1.12-.04-1.98-.41-2.71-1.16-.72-.74-1.06-1.57-1.06-2.62v-55.71l20.93-.02c1.88.24,3.72.99,5.24,2.1,2.53,2.14,4.49,4.77,5.83,7.85,1.69,3.61,3.22,7.35,4.56,11.13,1.21,3.36,2.54,6.69,3.95,9.88,3.07,7.55,7.67,14.91,13.67,21.87,6.01,6.88,13.92,10.87,23.53,11.87.76.07,1.55.1,2.38.1,1.13,0,2.19-.44,2.97-1.23.82-.81,1.25-1.88,1.25-3.09,0-1.09-.38-2.09-1.09-2.87-.45-.5-1.44-1.35-3-1.35ZM526.09,82.39c0,3.15-.47,6.35-1.4,9.54-.85,3.1-2.28,6.1-4.25,8.92-1.99,2.77-4.61,5.08-7.76,6.84-2.85,1.54-6.26,2.4-10.1,2.57h-35.98v-55.77h35.85c3.66.06,7.1.92,10.22,2.57,3.16,1.72,5.77,4.02,7.75,6.83,1.98,2.83,3.42,5.85,4.28,8.99.92,3.16,1.38,6.36,1.38,9.5Z"/>
    <path class="cls-1" d="M661.8,54.4c-4.13-3.08-8.63-5.38-13.35-6.82-4.58-1.44-9.33-2.17-14.1-2.17h-58.87l-.09,5.24,1.16.04c1.19.04,2.08.41,2.8,1.16.73.75,1.07,1.61,1.07,2.72v120.52c-.08,1.11-.45,1.96-1.18,2.69-.7.71-1.56,1.05-2.69,1.09l-1.16.04.09,5.25h27.83l.09-5.25-1.17-.04c-1.18-.04-2.07-.41-2.8-1.16-.72-.74-1.06-1.57-1.06-2.62v-55.71h36.07c1.75,0,3.81-.2,6.12-.59,2.22-.38,4.13-.74,5.74-1.09,1.9-.41,2.54-.57,2.88-.72,4.47-1.45,8.72-3.66,12.63-6.59,4.27-3.21,7.72-7.3,10.25-12.16,2.55-4.89,3.84-10.22,3.84-15.83s-1.29-10.96-3.84-15.93c-2.54-4.87-5.99-8.93-10.26-12.07ZM657.95,82.39c0,3.14-.47,6.34-1.4,9.54-.85,3.1-2.28,6.1-4.23,8.89-2.06,2.79-4.69,5.11-7.79,6.88-2.85,1.54-6.26,2.4-10.1,2.57h-36.07v-55.77h35.95c3.65.06,7.09.92,10.21,2.57,3.16,1.72,5.77,4.02,7.75,6.83,1.99,2.83,3.42,5.85,4.28,8.99.92,3.17,1.38,6.36,1.38,9.5Z"/>
    <path class="cls-1" d="M696.07,45.4l-.09,5.25,1.16.04c1.12.04,1.98.41,2.71,1.16.73.75,1.07,1.61,1.07,2.72v120.43c0,1.11-.34,1.97-1.07,2.72-.73.75-1.59,1.12-2.71,1.16l-1.16.04.09,5.25h93.81v-19.56l-3.77,1.77c-3.93,1.85-7.29,3.35-9.99,4.47-2.66,1.11-5.32,2.12-7.9,3.01-3.17,1.09-4.42,1.21-4.81,1.21h-44.45v-57.63h30.77s.67,0,3.42.63c2.04.46,4.23.98,6.58,1.53,2.34.56,5.23,1.29,8.67,2.22l3.33.89v-19.64l-3.33.89c-3.45.93-6.36,1.68-8.7,2.27-2.32.59-4.49,1.09-6.51,1.52-2.67.57-3.35.6-3.45.6h-30.77v-53.72h44.36c.53,0,1.86.16,4.9,1.2,2.5.86,5.15,1.88,7.9,3.01,2.74,1.14,6.08,2.61,10.02,4.39l3.73,1.69v-19.4l-92.64-.09h-1.17Z"/>
    <path class="cls-1" d="M935.62,177.07c-.46-.69-.67-1.38-.67-2.17V54.47c0-1.05.35-1.91,1.06-2.66.73-.68,1.62-1.04,2.8-1.12l1.1-.08v-5.21h-18.94v5.28h1.19c.51,0,1.01.13,1.61.42,1.46.84,2.08,1.84,2.08,3.37v109.76l-89.95-118.83h-21.48v5.07l1.52.3c.45.04.86.15,1.42.37,1.42.83,2.03,1.83,2.03,3.33v120.43c0,1.11-.34,1.95-1.14,2.74-.72.76-1.62,1.15-2.81,1.23l-1.15.08.17,5.21h18.86l.18-5.2-1.14-.08c-1.15-.08-2.04-.47-2.8-1.26-.72-.74-1.06-1.6-1.06-2.71v-109.55l89.59,118.33.36.47h21.44l.22-5.18-1.13-.09c-1.48-.13-2.48-.68-3.32-1.81Z"/>
    <g>
      <path class="cls-1" d="M951.19,68.9l4.59-2.08c3.94-1.78,7.29-3.26,10.03-4.44,2.69-1.15,5.32-2.17,7.8-3.04,3.02-1.05,4.26-1.17,4.66-1.17h30.54v119.97c0,.89-.28,1.57-.89,2.2-.63.64-1.34.94-2.3.97l-1.76.06.11,6.43h28.92l.11-6.43-1.76-.06c-.96-.03-1.67-.34-2.3-.98-.62-.63-.89-1.31-.89-2.2V58.17h30.45c.39,0,1.64.12,4.71,1.17,2.49.86,5.13,1.88,7.83,3.03,2.74,1.17,6.05,2.64,9.92,4.43l4.6,2.12v-21.07h-134.36v21.04Z"/>
      <path class="cls-1" d="M1100.99,54.29l1.75.07c.97.03,1.68.34,2.3.97s.9,1.35.9,2.3v120.43c0,.95-.28,1.66-.89,2.29-.63.64-1.34.94-2.3.97l-1.76.06.11,6.43h95v-21.11l-4.62,2.17c-3.92,1.84-7.28,3.34-9.97,4.45-2.73,1.13-5.37,2.14-7.87,3-3.14,1.09-4.33,1.17-4.61,1.17h-43.85v-56.42h30.16c.06,0,.69.03,3.29.61,2.04.46,4.23.98,6.58,1.53,2.33.56,5.22,1.29,8.66,2.21l4.08,1.09v-21.22l-4.09,1.1c-3.45.93-6.35,1.68-8.69,2.27-2.32.58-4.48,1.08-6.49,1.51-2.64.56-3.27.58-3.33.58h-30.17v-52.51h43.75c.39,0,1.64.12,4.71,1.17,2.52.87,5.16,1.88,7.87,3,2.73,1.13,6.07,2.6,10.01,4.38l4.59,2.08v-20.94l-95-.1-.11,6.43Z"/>
      <path class="cls-1" d="M1323.15,178.06l-1.44-.06c-2.9-.4-5.33-1.52-7.24-3.33-2.15-2.04-3.87-4.28-5.1-6.63-2.1-4.2-3.96-8.56-5.52-12.95-.96-2.69-2.02-5.34-3.1-7.81-3.1-7.96-7.72-15.37-13.73-22.02-.83-.93-1.72-1.82-2.66-2.68.29-.04.59-.09.89-.14,2.23-.38,4.14-.75,5.72-1.1,1.79-.39,2.51-.57,2.86-.73,4.54-1.46,8.86-3.71,12.82-6.68,4.34-3.26,7.85-7.42,10.42-12.36,2.58-4.96,3.93-10.38,4-16.15-.07-5.69-1.41-11.13-4-16.17-2.58-4.94-6.09-9.08-10.43-12.27-4.19-3.12-8.72-5.45-13.45-6.91-4.7-1.46-9.53-2.2-14.36-2.2h-59.36l-.11,6.43,1.75.07c.97.03,1.68.34,2.3.97s.9,1.35.9,2.3v120.47c-.06.97-.37,1.68-1.01,2.31-.6.6-1.27.88-2.19.91l-1.75.06.11,6.43h28.92l.11-6.43-1.76-.06c-.96-.03-1.67-.34-2.3-.98-.62-.63-.89-1.31-.89-2.2v-55.11l20.25-.02c1.78.23,3.53.94,4.94,1.96,2.46,2.09,4.36,4.64,5.67,7.64,1.69,3.62,3.21,7.35,4.54,11.08,1.2,3.36,2.54,6.71,3.96,9.9,3.1,7.62,7.73,15.03,13.78,22.04,6.11,6.99,14.16,11.06,23.93,12.08.78.07,1.59.11,2.44.11,1.29,0,2.5-.5,3.41-1.42.91-.91,1.42-2.16,1.42-3.51,0-1.24-.43-2.37-1.25-3.28-.89-.99-2.11-1.53-3.46-1.54ZM1243.54,58.17h35.23c3.57.06,6.92.9,9.95,2.49,3.08,1.67,5.62,3.91,7.55,6.64,1.95,2.79,3.35,5.74,4.19,8.82.9,3.1,1.36,6.24,1.36,9.33s-.46,6.24-1.38,9.38c-.83,3.03-2.23,5.98-4.16,8.73-1.95,2.7-4.5,4.95-7.56,6.67-2.78,1.5-6.1,2.34-9.81,2.5h-35.38v-54.56Z"/>
      <path class="cls-1" d="M1376.2,55.33c.63-.64,1.34-.94,2.31-.98l1.75-.07-.11-6.43h-28.92l-.11,6.43,1.75.07c.97.03,1.68.34,2.3.97s.9,1.35.9,2.3v120.52c0,.89-.28,1.57-.89,2.2-.63.64-1.34.94-2.3.97l-1.76.06.11,6.43h28.92l.11-6.43-1.76-.06c-.96-.03-1.67-.34-2.3-.98-.62-.63-.89-1.31-.89-2.2V57.62c0-.95.28-1.66.89-2.29Z"/>
      <path class="cls-1" d="M1472.84,58.27c.39,0,1.64.12,4.71,1.17,2.52.87,5.16,1.88,7.87,3,2.73,1.13,6.07,2.6,10.01,4.38l4.59,2.08v-20.94l-95-.1-.11,6.43,1.75.07c.97.03,1.68.34,2.3.97s.9,1.35.9,2.3v120.43c0,.95-.28,1.66-.89,2.29-.63.64-1.34.94-2.3.97l-1.76.06.11,6.43h95v-21.11l-4.62,2.17c-3.92,1.84-7.28,3.34-9.97,4.45-2.73,1.13-5.37,2.14-7.87,3-3.14,1.09-4.33,1.17-4.61,1.17h-43.85v-56.42h30.16c.06,0,.69.03,3.29.61,2.04.46,4.23.98,6.58,1.53,2.33.56,5.22,1.29,8.66,2.21l4.08,1.09v-21.22l-4.09,1.1c-3.45.93-6.35,1.68-8.69,2.27-2.32.58-4.48,1.08-6.49,1.51-2.64.56-3.27.58-3.33.58h-30.17v-52.51h43.75Z"/>
    </g>
    <path class="cls-1" d="M159.03,177.71c-.72-.74-1.06-1.57-1.06-2.62v-63.04l70.38-35.15v93.71l5.29-9.11h0s9.83-16.94,9.83-16.94h0s2.92-5.03,2.92-5.03V54.57c0-1.11.34-1.97,1.07-2.72.73-.75,1.59-1.12,2.71-1.16l1.16-.04-.09-5.24h-27.74l-.09,5.24,1.16.04c1.12.04,1.98.41,2.71,1.16.73.75,1.07,1.61,1.07,2.72v12.15l-70.38,35.23v-47.38c0-1.11.34-1.97,1.06-2.72.73-.75,1.59-1.12,2.72-1.16l1.16-.04-.09-5.24h-27.74l-.09,5.24,1.16.04c1.12.04,1.99.41,2.72,1.16.73.74,1.06,1.61,1.06,2.72v120.52c0,1.05-.34,1.88-1.06,2.62-.73.75-1.59,1.12-2.71,1.16l-1.16.04.09,5.25h27.74l.09-5.25-1.16-.04c-1.12-.04-1.98-.41-2.72-1.16Z"/>
    <path class="cls-1" d="M247.45,177.71c-.72-.74-1.06-1.57-1.06-2.62v-22.83l-2.14,2.88c-.27.37-.52.71-.78,1.07v-.05l-2.15,2.99-.22.31h0c-2.64,3.69-5.11,7.31-7.46,10.87v-.1l-2.18,3.4-.19.29h0c-1.24,1.94-2.3,3.63-3.09,4.94-.54.88-1.89,1.1-2.57.75l-2.21-1.74.1,6.29h27.74l.09-5.25-1.16-.04c-1.12-.04-1.98-.41-2.71-1.16Z"/>
  </g>
</svg>