<?xml version="1.0" encoding="utf-8"?>
<!-- Generator: Adobe Illustrator 28.1.0, SVG Export Plug-In . SVG Version: 6.00 Build 0)  -->
<svg version="1.1" id="Capa_1" xmlns="http://www.w3.org/2000/svg" xmlns:xlink="http://www.w3.org/1999/xlink" x="0px" y="0px"
	 viewBox="0 0 400 320.6" style="enable-background:new 0 0 400 320.6;" xml:space="preserve">
<style type="text/css">
	.st0{fill:url(#SVGID_1_);}
	.st1{fill:url(#SVGID_00000015329872205553448370000011814046847914753711_);}
	.st2{fill:#FFFFFF;}
	.st3{clip-path:url(#SVGID_00000168109559264049664700000011959424676551302307_);}
	.st4{fill:#D5C48F;}
	.st5{fill:#1E1A4C;}
</style>
<g>
	<g id="Capa_1_00000054956253826412417900000012022238420551997066_">
		<g>
			<g>
				<g>
					
						<linearGradient id="SVGID_1_" gradientUnits="userSpaceOnUse" x1="105.0083" y1="92.8073" x2="291.3283" y2="279.1273" gradientTransform="matrix(1 0 0 -1 0 321.2756)">
						<stop  offset="0" style="stop-color:#1E1A4C"/>
						<stop  offset="1" style="stop-color:#003A6D"/>
					</linearGradient>
					<path class="st0" d="M333.5,133.2C333.5,59.6,273.9,0,200.3,0S67.1,59.6,67.1,133.2c0,61.2,41.2,112.6,97.4,128.3l35.8,50.5
						l35.8-50.5C292.2,245.8,333.5,194.3,333.5,133.2L333.5,133.2z"/>
					
						<radialGradient id="SVGID_00000174583251033301504360000001964537995838957728_" cx="186.58" cy="174.3556" r="111.49" gradientTransform="matrix(1 0 0 -1 0 321.2756)" gradientUnits="userSpaceOnUse">
						<stop  offset="0.53" style="stop-color:#000000"/>
						<stop  offset="0.59" style="stop-color:#373737"/>
						<stop  offset="0.65" style="stop-color:#6C6C6C"/>
						<stop  offset="0.71" style="stop-color:#999999"/>
						<stop  offset="0.76" style="stop-color:#BDBDBD"/>
						<stop  offset="0.82" style="stop-color:#DADADA"/>
						<stop  offset="0.88" style="stop-color:#EEEEEE"/>
						<stop  offset="0.94" style="stop-color:#FAFAFA"/>
						<stop  offset="1" style="stop-color:#FFFFFF"/>
					</radialGradient>
					<circle style="fill:url(#SVGID_00000174583251033301504360000001964537995838957728_);" cx="186.6" cy="146.9" r="111.5"/>
					<circle class="st2" cx="200.3" cy="133.2" r="97.1"/>
				</g>
				<g>
					<defs>
						<circle id="SVGID_00000022522262448700147920000015263586950869825187_" cx="200.3" cy="133.2" r="97.1"/>
					</defs>
					<clipPath id="SVGID_00000120535937959082053820000008286052796492297103_">
						<use xlink:href="#SVGID_00000022522262448700147920000015263586950869825187_"  style="overflow:visible;"/>
					</clipPath>
					<g style="clip-path:url(#SVGID_00000120535937959082053820000008286052796492297103_);">
						<g>
							<polygon class="st4" points="248.8,93.9 248.8,95 264.1,100.3 							"/>
							<polygon class="st4" points="248.8,92.1 248.8,93.3 264.1,98.6 							"/>
							<polygon class="st4" points="248.8,90.4 248.8,91.5 264.1,96.8 							"/>
							<path class="st4" d="M248.3,90.4l-14.1,3.4c-0.6,0.3-1,0.9-1,1.6V99c0,0,4.1-1.4,7.7-2.2c3.1-0.8,7.4-1.8,7.4-1.8V90.4
								L248.3,90.4z"/>
							<path class="st5" d="M263.4,180.5l-30.5,8.5c-0.5,0.1-0.5,0.2-0.1,0.2h17.4c0.9,0,3-0.3,3.9-0.6l56.3-18.6
								c1-0.3-183.6,16.9-183.6,16.9c-0.1,0-0.1,0-0.2,0c7.1-1.1,84.3-5.1,102.9-7.5l50.4-4.1c1.8-0.3,2.9-0.2,1.9,0l-7.9,2.2
								L263.4,180.5L263.4,180.5z"/>
							<path class="st5" d="M200.6,65.9L200.6,65.9c-0.9-1.7-3.3-1.8-4.3-0.1l-69.5,119.8c0,0.1,0,0.1-0.1,0.2
								c3.9-6.5,13.4-20.9,27.2-35.8l27.7-46.2c1-1.7,3.4-1.6,4.3,0.2l6.9,13.7c8.2-5.1,17.4-10,27.5-14.2L200.6,65.9L200.6,65.9z
								 M261.5,189.3h-32.3c-0.9,0-1.8-0.5-2.2-1.4l-25.3-52.2c5.4-1.9,10.7-3.5,15.5-4.6c5.7-1.3,11.1-2.3,16.1-3l30.4,57.6
								C264.5,187.4,263.4,189.3,261.5,189.3"/>
							<path class="st4" d="M248.1,114l-3.4,0.6c-0.2,0-0.4-0.1-0.4-0.3l0-4.6c0-0.2,0.2-0.4,0.4-0.5l3.4-1.2c0,0,0.1,0,0.1,0
								l0.1-6.2l-3.7,0.8c-0.2,0.1-0.4,0-0.4-0.2V100c0-0.2,0.1-0.5,0.3-0.6l3.5-1.2c-0.3-0.5-0.9-0.9-1.6-0.7
								c-8.4,1.8-21.5,6.8-25.8,8.6c-10.2,4.2-19.4,9.1-27.6,14.2c-13.5,8.5-24.3,17.7-32.6,26c-7.1,7.1-12.8,14-17.4,20l-1.7,2.8
								c18.4-18.8,39.5-29.8,58-36.1c11.2-3.9,22.8-6.8,34.5-8.6c3.9-0.6,7.8-1,11.7-1.5c1.4-0.2,2.5-1.3,2.5-2.7L248.1,114
								C248.2,114,248.1,114,248.1,114 M244.2,118.7c0,0.2-0.1,0.4-0.2,0.4l-3.5,0.5h-0.1c-0.2,0-0.4-0.2-0.4-0.4v-3.1
								c0-0.2,0.1-0.4,0.1-0.4s0.3-0.1,0.5-0.1l0.6-0.1c0.2,0,0.6-0.1,0.8-0.1l0.6-0.1c0.2,0,0.9-0.2,1.1-0.2c0.2,0,0.4,0.1,0.4,0.3
								L244.2,118.7L244.2,118.7z M244.2,108.5c0,0.2-0.2,0.5-0.4,0.5c-0.4,0.1-2.4,0.6-3.3,0.9c-0.3,0.1-0.5-0.1-0.5-0.4v-0.7
								c0-0.2,0.2-0.5,0.4-0.6l3.5-1.2c0.2-0.1,0.4,0,0.4,0.2V108.5L244.2,108.5z"/>
							<path class="st4" d="M254.7,103.9c0,0.2,0,0.4-0.1,0.3c0,0-0.2-0.1-0.4-0.2l-1.5-0.7c-0.2-0.1-0.4-0.3-0.4-0.6v-2.3
								c0-0.2,0.1-0.3,0.3-0.2l1.7,1c0.2,0.1,0.3,0.4,0.3,0.6V103.9L254.7,103.9z"/>
							<path class="st4" d="M248.8,102.3c0-0.2,0.2-0.3,0.4-0.2l2.5,1.2c0.2,0.1,0.4,0.3,0.4,0.6v4.3c0,0.2-0.2,0.3-0.4,0.3
								l-2.4-0.8c-0.2-0.1-0.4-0.3-0.4-0.5L248.8,102.3L248.8,102.3z"/>
							<path class="st4" d="M248.8,108.2c0-0.2,0.2-0.3,0.4-0.3l2.4,0.8c0.2,0.1,0.4,0.3,0.4,0.5v4.8c0,0.2-0.2,0.4-0.4,0.3
								l-2.4-0.4c-0.2,0-0.4-0.2-0.4-0.4L248.8,108.2L248.8,108.2z"/>
							<path class="st4" d="M254.8,114.6c0,0.2-0.1,0.4-0.1,0.4c-0.1,0-0.3-0.1-0.5-0.1l-1.4-0.2c-0.2,0-0.4-0.2-0.4-0.4v-4.7
								c0-0.2,0.2-0.3,0.4-0.3l1.4,0.5c0.2,0.1,0.4,0.2,0.5,0.2s0.2,0.2,0.2,0.4L254.8,114.6L254.8,114.6z"/>
							<path class="st4" d="M248.8,114.8c0-0.2,0.2-0.4,0.4-0.3l2.4,0.4c0.2,0,0.4,0.2,0.4,0.4v3.4c0,0.2-0.2,0.4-0.4,0.4l-1.7-0.1
								c-0.2,0-0.5,0-0.7,0c-0.2,0-0.3-0.2-0.3-0.4L248.8,114.8L248.8,114.8z"/>
							<path class="st4" d="M254.8,118.7c0,0.2-0.2,0.4-0.4,0.4l-1.7-0.1c-0.2,0-0.4-0.2-0.4-0.4v-3.3c0-0.2,0.2-0.4,0.4-0.3
								l1.4,0.2c0.2,0,0.4,0.1,0.5,0.1c0.1,0,0.1,0.2,0.1,0.4L254.8,118.7L254.8,118.7z"/>
							<path class="st4" d="M261.8,116.8c0-0.2-0.2-0.4-0.4-0.4c0,0-0.5-0.1-1-0.2c-0.9-0.1-2.2-0.3-2.2-0.3c-0.2,0-0.4,0.1-0.4,0.3
								v2.6c0,0.2,0.2,0.4,0.4,0.4c0,0,1.7,0.1,2.7,0.1c0.3,0,0.5,0,0.5,0c0.2,0,0.4-0.2,0.4-0.4L261.8,116.8L261.8,116.8z"/>
							<path class="st4" d="M261.8,112.6c0-0.2-0.2-0.4-0.4-0.5l-0.7-0.2c-0.2-0.1-0.5-0.2-0.7-0.2l-0.8-0.2
								c-0.2-0.1-0.5-0.2-0.7-0.2l-0.4-0.1c-0.2-0.1-0.4,0.1-0.4,0.3v3.8c0,0.2,0.2,0.4,0.4,0.5c0,0,1.4,0.2,2.3,0.4
								c0.4,0.1,0.9,0.2,0.9,0.2c0.2,0,0.4-0.1,0.4-0.3L261.8,112.6L261.8,112.6z"/>
							<path class="st4" d="M263.9,121.3c0.1,0,0.1-0.2,0.1-0.4v-0.8c0-0.2-0.2-0.4-0.4-0.4l-1.3,0c-0.2,0-0.4,0.2-0.4,0.4v1
								c0,0.2,0.1,0.4,0.1,0.4s0.3,0,0.5-0.1l0.6-0.1C263.6,121.3,263.8,121.3,263.9,121.3"/>
							<path class="st4" d="M262.4,112.4c-0.2-0.1-0.4,0.1-0.4,0.3v3.1c0,0.2,0.2,0.4,0.4,0.5l1.3,0.2c0.2,0,0.4-0.1,0.4-0.3v-2.8
								c0-0.2-0.2-0.4-0.4-0.5L262.4,112.4L262.4,112.4z"/>
							<path class="st4" d="M262.4,108.2c-0.2-0.1-0.4,0-0.4,0.2v3.1c0,0.2,0.2,0.4,0.4,0.5l1.3,0.5c0.2,0.1,0.4-0.1,0.4-0.3v-2.9
								c0-0.2-0.1-0.5-0.4-0.6L262.4,108.2L262.4,108.2z"/>
							<path class="st4" d="M262.4,103.7c-0.2-0.1-0.3,0-0.3,0.2v3.5c0,0.2,0.2,0.5,0.4,0.6l1.4,0.6c0.2,0.1,0.4,0,0.4-0.2v-3.1
								c0-0.2-0.1-0.5-0.3-0.6L262.4,103.7L262.4,103.7z"/>
							<path class="st4" d="M257.2,121.8c0.2,0,0.3-0.2,0.3-0.4V120c0-0.2-0.2-0.4-0.4-0.4l-1.6,0c-0.2,0-0.4,0.2-0.4,0.4v1.7
								c0,0.2,0.1,0.4,0.3,0.4c0.2,0,0.5,0,0.7-0.1l0.4,0C256.7,121.9,257,121.8,257.2,121.8"/>
							<path class="st4" d="M257.5,116.2c0-0.2,0-0.4,0-0.4s-0.2,0-0.4-0.1l-1.6-0.2c-0.2,0-0.4,0.1-0.4,0.3v3
								c0,0.2,0.2,0.4,0.4,0.4l1.6,0.1c0.2,0,0.4-0.2,0.4-0.4L257.5,116.2L257.5,116.2z"/>
							<path class="st4" d="M257.5,111.2c0-0.2,0-0.4,0-0.4c0,0-0.2-0.1-0.4-0.1l-1.6-0.5c-0.2-0.1-0.4,0.1-0.4,0.3v4.2
								c0,0.2,0.2,0.4,0.4,0.5l1.6,0.3c0.2,0,0.4-0.1,0.4-0.3L257.5,111.2L257.5,111.2z"/>
							<path class="st4" d="M257.5,106.4c0-0.2,0-0.4,0-0.4c0,0-0.2-0.1-0.4-0.2l-1.6-0.7c-0.2-0.1-0.4,0-0.4,0.2v3.9
								c0,0.2,0.2,0.4,0.4,0.5l1.6,0.6c0.2,0.1,0.4-0.1,0.4-0.3L257.5,106.4L257.5,106.4z"/>
							<path class="st4" d="M264.1,104.8l-2.1-1.3C262.7,103.9,263.4,104.4,264.1,104.8"/>
						</g>
					</g>
				</g>
			</g>
		</g>
	</g>
</g>
</svg>
